<mxfile host="app.diagrams.net" modified="2023-04-01T11:49:16.165Z" agent="Mozilla/5.0 (Macintosh; Intel Mac OS X 10_15_7) AppleWebKit/537.36 (KHTML, like Gecko) Chrome/111.0.0.0 Safari/537.36" etag="6H-arY-ZyNm-DWMkfpOj" version="21.1.2" type="device" pages="9">
  <diagram id="mAgg1yGwfZaQEEpxqsed" name="cnn">
    <mxGraphModel dx="954" dy="623" grid="1" gridSize="10" guides="1" tooltips="1" connect="1" arrows="1" fold="1" page="1" pageScale="1" pageWidth="850" pageHeight="1100" math="0" shadow="0">
      <root>
        <mxCell id="0" />
        <mxCell id="1" parent="0" />
        <mxCell id="qF8N71oFVZ7hogNssK3Q-10" style="edgeStyle=orthogonalEdgeStyle;rounded=0;orthogonalLoop=1;jettySize=auto;html=1;entryX=0.5;entryY=0;entryDx=0;entryDy=0;" parent="1" source="qF8N71oFVZ7hogNssK3Q-1" target="qF8N71oFVZ7hogNssK3Q-2" edge="1">
          <mxGeometry relative="1" as="geometry" />
        </mxCell>
        <mxCell id="qF8N71oFVZ7hogNssK3Q-1" value="Входные данные" style="rounded=0;whiteSpace=wrap;html=1;rotation=-90;" parent="1" vertex="1">
          <mxGeometry y="80" width="120" height="40" as="geometry" />
        </mxCell>
        <mxCell id="qF8N71oFVZ7hogNssK3Q-11" style="edgeStyle=orthogonalEdgeStyle;rounded=0;orthogonalLoop=1;jettySize=auto;html=1;entryX=0.5;entryY=0;entryDx=0;entryDy=0;" parent="1" source="qF8N71oFVZ7hogNssK3Q-2" target="qF8N71oFVZ7hogNssK3Q-3" edge="1">
          <mxGeometry relative="1" as="geometry" />
        </mxCell>
        <mxCell id="qF8N71oFVZ7hogNssK3Q-2" value="Сверточный слой" style="rounded=0;whiteSpace=wrap;html=1;rotation=-90;fillColor=#CCFFFF;" parent="1" vertex="1">
          <mxGeometry x="60" y="80" width="120" height="40" as="geometry" />
        </mxCell>
        <mxCell id="qF8N71oFVZ7hogNssK3Q-12" style="edgeStyle=orthogonalEdgeStyle;rounded=0;orthogonalLoop=1;jettySize=auto;html=1;entryX=0.5;entryY=0;entryDx=0;entryDy=0;" parent="1" source="qF8N71oFVZ7hogNssK3Q-3" target="qF8N71oFVZ7hogNssK3Q-4" edge="1">
          <mxGeometry relative="1" as="geometry" />
        </mxCell>
        <mxCell id="qF8N71oFVZ7hogNssK3Q-3" value="Объединяющий слой" style="rounded=0;whiteSpace=wrap;html=1;rotation=-90;fillColor=#FFCC99;" parent="1" vertex="1">
          <mxGeometry x="120" y="80" width="120" height="40" as="geometry" />
        </mxCell>
        <mxCell id="qF8N71oFVZ7hogNssK3Q-13" style="edgeStyle=orthogonalEdgeStyle;rounded=0;orthogonalLoop=1;jettySize=auto;html=1;entryX=0.5;entryY=0;entryDx=0;entryDy=0;" parent="1" source="qF8N71oFVZ7hogNssK3Q-4" target="qF8N71oFVZ7hogNssK3Q-5" edge="1">
          <mxGeometry relative="1" as="geometry" />
        </mxCell>
        <mxCell id="qF8N71oFVZ7hogNssK3Q-4" value="Сверточный слой" style="rounded=0;whiteSpace=wrap;html=1;rotation=-90;fillColor=#CCFFFF;" parent="1" vertex="1">
          <mxGeometry x="180" y="80" width="120" height="40" as="geometry" />
        </mxCell>
        <mxCell id="qF8N71oFVZ7hogNssK3Q-5" value="Объединяющий слой" style="rounded=0;whiteSpace=wrap;html=1;rotation=-90;labelBackgroundColor=none;fillColor=#FFCC99;" parent="1" vertex="1">
          <mxGeometry x="240" y="80" width="120" height="40" as="geometry" />
        </mxCell>
        <mxCell id="qF8N71oFVZ7hogNssK3Q-6" value="" style="shape=waypoint;sketch=0;fillStyle=solid;size=6;pointerEvents=1;points=[];fillColor=none;resizable=0;rotatable=0;perimeter=centerPerimeter;snapToPoint=1;" parent="1" vertex="1">
          <mxGeometry x="330" y="80" width="40" height="40" as="geometry" />
        </mxCell>
        <mxCell id="qF8N71oFVZ7hogNssK3Q-15" style="edgeStyle=orthogonalEdgeStyle;rounded=0;orthogonalLoop=1;jettySize=auto;html=1;entryX=0.5;entryY=0;entryDx=0;entryDy=0;" parent="1" target="qF8N71oFVZ7hogNssK3Q-8" edge="1">
          <mxGeometry relative="1" as="geometry">
            <mxPoint x="400" y="100" as="sourcePoint" />
          </mxGeometry>
        </mxCell>
        <mxCell id="qF8N71oFVZ7hogNssK3Q-7" value="" style="shape=waypoint;sketch=0;fillStyle=solid;size=6;pointerEvents=1;points=[];fillColor=none;resizable=0;rotatable=0;perimeter=centerPerimeter;snapToPoint=1;" parent="1" vertex="1">
          <mxGeometry x="370" y="80" width="40" height="40" as="geometry" />
        </mxCell>
        <mxCell id="qF8N71oFVZ7hogNssK3Q-16" style="edgeStyle=orthogonalEdgeStyle;rounded=0;orthogonalLoop=1;jettySize=auto;html=1;entryX=0.5;entryY=0;entryDx=0;entryDy=0;" parent="1" source="qF8N71oFVZ7hogNssK3Q-8" target="qF8N71oFVZ7hogNssK3Q-9" edge="1">
          <mxGeometry relative="1" as="geometry" />
        </mxCell>
        <mxCell id="qF8N71oFVZ7hogNssK3Q-8" value="Сверточный слой" style="rounded=0;whiteSpace=wrap;html=1;rotation=-90;fillColor=#CCFFFF;" parent="1" vertex="1">
          <mxGeometry x="380" y="80" width="120" height="40" as="geometry" />
        </mxCell>
        <mxCell id="qF8N71oFVZ7hogNssK3Q-23" style="edgeStyle=orthogonalEdgeStyle;rounded=0;orthogonalLoop=1;jettySize=auto;html=1;entryX=0.5;entryY=0;entryDx=0;entryDy=0;" parent="1" source="qF8N71oFVZ7hogNssK3Q-9" target="qF8N71oFVZ7hogNssK3Q-22" edge="1">
          <mxGeometry relative="1" as="geometry" />
        </mxCell>
        <mxCell id="qF8N71oFVZ7hogNssK3Q-9" value="Объединяющий слой" style="rounded=0;whiteSpace=wrap;html=1;rotation=-90;fillColor=#FFCC99;" parent="1" vertex="1">
          <mxGeometry x="440" y="80" width="120" height="40" as="geometry" />
        </mxCell>
        <mxCell id="qF8N71oFVZ7hogNssK3Q-17" value="" style="shape=waypoint;sketch=0;fillStyle=solid;size=6;pointerEvents=1;points=[];fillColor=none;resizable=0;rotatable=0;perimeter=centerPerimeter;snapToPoint=1;fontSize=12;" parent="1" vertex="1">
          <mxGeometry x="350" y="80" width="40" height="40" as="geometry" />
        </mxCell>
        <mxCell id="qF8N71oFVZ7hogNssK3Q-32" style="edgeStyle=orthogonalEdgeStyle;rounded=0;orthogonalLoop=1;jettySize=auto;html=1;entryX=0.5;entryY=0;entryDx=0;entryDy=0;" parent="1" source="qF8N71oFVZ7hogNssK3Q-22" target="qF8N71oFVZ7hogNssK3Q-24" edge="1">
          <mxGeometry relative="1" as="geometry" />
        </mxCell>
        <mxCell id="qF8N71oFVZ7hogNssK3Q-22" value="Полносвязный слой" style="rounded=0;whiteSpace=wrap;html=1;rotation=-90;fillColor=#99FF99;" parent="1" vertex="1">
          <mxGeometry x="500" y="80" width="120" height="40" as="geometry" />
        </mxCell>
        <mxCell id="qF8N71oFVZ7hogNssK3Q-24" value="Выходные данные" style="rounded=0;whiteSpace=wrap;html=1;rotation=-90;" parent="1" vertex="1">
          <mxGeometry x="560" y="80" width="120" height="40" as="geometry" />
        </mxCell>
        <mxCell id="qF8N71oFVZ7hogNssK3Q-31" value="" style="endArrow=classic;html=1;rounded=0;exitX=0.5;exitY=1;exitDx=0;exitDy=0;" parent="1" source="qF8N71oFVZ7hogNssK3Q-5" edge="1">
          <mxGeometry width="50" height="50" relative="1" as="geometry">
            <mxPoint x="330" y="100" as="sourcePoint" />
            <mxPoint x="340" y="100" as="targetPoint" />
          </mxGeometry>
        </mxCell>
      </root>
    </mxGraphModel>
  </diagram>
  <diagram id="tJWYwpBGcXDqiqM8Jzod" name="convolution">
    <mxGraphModel dx="954" dy="623" grid="1" gridSize="10" guides="1" tooltips="1" connect="1" arrows="1" fold="1" page="1" pageScale="1" pageWidth="827" pageHeight="1169" math="0" shadow="0">
      <root>
        <mxCell id="0" />
        <mxCell id="1" parent="0" />
        <mxCell id="tjpM7EeE18Mc8wkn_uiX-1" value="0" style="whiteSpace=wrap;html=1;aspect=fixed;fontSize=10;" parent="1" vertex="1">
          <mxGeometry x="40" y="40" width="40" height="40" as="geometry" />
        </mxCell>
        <mxCell id="tjpM7EeE18Mc8wkn_uiX-4" value="1" style="whiteSpace=wrap;html=1;aspect=fixed;fontSize=10;" parent="1" vertex="1">
          <mxGeometry x="80" y="40" width="40" height="40" as="geometry" />
        </mxCell>
        <mxCell id="tjpM7EeE18Mc8wkn_uiX-5" value="-1" style="whiteSpace=wrap;html=1;aspect=fixed;fontSize=10;" parent="1" vertex="1">
          <mxGeometry x="40" y="80" width="40" height="40" as="geometry" />
        </mxCell>
        <mxCell id="tjpM7EeE18Mc8wkn_uiX-6" value="2" style="whiteSpace=wrap;html=1;aspect=fixed;fontSize=10;" parent="1" vertex="1">
          <mxGeometry x="80" y="80" width="40" height="40" as="geometry" />
        </mxCell>
        <mxCell id="tjpM7EeE18Mc8wkn_uiX-7" value="1" style="whiteSpace=wrap;html=1;aspect=fixed;fontSize=10;" parent="1" vertex="1">
          <mxGeometry x="40" y="160" width="40" height="40" as="geometry" />
        </mxCell>
        <mxCell id="tjpM7EeE18Mc8wkn_uiX-8" value="0" style="whiteSpace=wrap;html=1;aspect=fixed;fontSize=10;" parent="1" vertex="1">
          <mxGeometry x="80" y="160" width="40" height="40" as="geometry" />
        </mxCell>
        <mxCell id="tjpM7EeE18Mc8wkn_uiX-9" value="-1" style="whiteSpace=wrap;html=1;aspect=fixed;fontSize=10;" parent="1" vertex="1">
          <mxGeometry x="40" y="200" width="40" height="40" as="geometry" />
        </mxCell>
        <mxCell id="tjpM7EeE18Mc8wkn_uiX-10" value="0" style="whiteSpace=wrap;html=1;aspect=fixed;fontSize=10;" parent="1" vertex="1">
          <mxGeometry x="80" y="200" width="40" height="40" as="geometry" />
        </mxCell>
        <mxCell id="tjpM7EeE18Mc8wkn_uiX-11" value="-2" style="whiteSpace=wrap;html=1;aspect=fixed;fontSize=10;" parent="1" vertex="1">
          <mxGeometry x="120" y="160" width="40" height="40" as="geometry" />
        </mxCell>
        <mxCell id="tjpM7EeE18Mc8wkn_uiX-12" value="1" style="whiteSpace=wrap;html=1;aspect=fixed;fontSize=10;" parent="1" vertex="1">
          <mxGeometry x="160" y="160" width="40" height="40" as="geometry" />
        </mxCell>
        <mxCell id="tjpM7EeE18Mc8wkn_uiX-13" value="1" style="whiteSpace=wrap;html=1;aspect=fixed;fontSize=10;" parent="1" vertex="1">
          <mxGeometry x="120" y="200" width="40" height="40" as="geometry" />
        </mxCell>
        <mxCell id="tjpM7EeE18Mc8wkn_uiX-14" value="2" style="whiteSpace=wrap;html=1;aspect=fixed;fontSize=10;" parent="1" vertex="1">
          <mxGeometry x="160" y="200" width="40" height="40" as="geometry" />
        </mxCell>
        <mxCell id="tjpM7EeE18Mc8wkn_uiX-15" value="0" style="whiteSpace=wrap;html=1;aspect=fixed;fontSize=10;" parent="1" vertex="1">
          <mxGeometry x="40" y="240" width="40" height="40" as="geometry" />
        </mxCell>
        <mxCell id="tjpM7EeE18Mc8wkn_uiX-16" value="2" style="whiteSpace=wrap;html=1;aspect=fixed;fontSize=10;" parent="1" vertex="1">
          <mxGeometry x="80" y="240" width="40" height="40" as="geometry" />
        </mxCell>
        <mxCell id="tjpM7EeE18Mc8wkn_uiX-17" value="1" style="whiteSpace=wrap;html=1;aspect=fixed;fontSize=10;" parent="1" vertex="1">
          <mxGeometry x="40" y="280" width="40" height="40" as="geometry" />
        </mxCell>
        <mxCell id="tjpM7EeE18Mc8wkn_uiX-18" value="0" style="whiteSpace=wrap;html=1;aspect=fixed;fontSize=10;" parent="1" vertex="1">
          <mxGeometry x="80" y="280" width="40" height="40" as="geometry" />
        </mxCell>
        <mxCell id="tjpM7EeE18Mc8wkn_uiX-19" value="1" style="whiteSpace=wrap;html=1;aspect=fixed;fontSize=10;" parent="1" vertex="1">
          <mxGeometry x="120" y="240" width="40" height="40" as="geometry" />
        </mxCell>
        <mxCell id="tjpM7EeE18Mc8wkn_uiX-20" value="0" style="whiteSpace=wrap;html=1;aspect=fixed;fontSize=10;" parent="1" vertex="1">
          <mxGeometry x="160" y="240" width="40" height="40" as="geometry" />
        </mxCell>
        <mxCell id="tjpM7EeE18Mc8wkn_uiX-21" value="0" style="whiteSpace=wrap;html=1;aspect=fixed;fontSize=10;" parent="1" vertex="1">
          <mxGeometry x="120" y="280" width="40" height="40" as="geometry" />
        </mxCell>
        <mxCell id="tjpM7EeE18Mc8wkn_uiX-22" value="1" style="whiteSpace=wrap;html=1;aspect=fixed;fontSize=10;" parent="1" vertex="1">
          <mxGeometry x="160" y="280" width="40" height="40" as="geometry" />
        </mxCell>
        <mxCell id="tjpM7EeE18Mc8wkn_uiX-23" value="1" style="whiteSpace=wrap;html=1;aspect=fixed;fontSize=10;fillColor=#ffe6cc;strokeColor=#d79b00;" parent="1" vertex="1">
          <mxGeometry x="40" y="400" width="40" height="40" as="geometry" />
        </mxCell>
        <mxCell id="tjpM7EeE18Mc8wkn_uiX-24" value="0" style="whiteSpace=wrap;html=1;aspect=fixed;fontSize=10;fillColor=#ffe6cc;strokeColor=#d79b00;" parent="1" vertex="1">
          <mxGeometry x="80" y="400" width="40" height="40" as="geometry" />
        </mxCell>
        <mxCell id="tjpM7EeE18Mc8wkn_uiX-25" value="-1" style="whiteSpace=wrap;html=1;aspect=fixed;fontSize=10;fillColor=#ffe6cc;strokeColor=#d79b00;" parent="1" vertex="1">
          <mxGeometry x="40" y="440" width="40" height="40" as="geometry" />
        </mxCell>
        <mxCell id="tjpM7EeE18Mc8wkn_uiX-26" value="0" style="whiteSpace=wrap;html=1;aspect=fixed;fontSize=10;fillColor=#ffe6cc;strokeColor=#d79b00;" parent="1" vertex="1">
          <mxGeometry x="80" y="440" width="40" height="40" as="geometry" />
        </mxCell>
        <mxCell id="tjpM7EeE18Mc8wkn_uiX-27" value="-2" style="whiteSpace=wrap;html=1;aspect=fixed;fontSize=10;" parent="1" vertex="1">
          <mxGeometry x="120" y="400" width="40" height="40" as="geometry" />
        </mxCell>
        <mxCell id="tjpM7EeE18Mc8wkn_uiX-28" value="1" style="whiteSpace=wrap;html=1;aspect=fixed;fontSize=10;" parent="1" vertex="1">
          <mxGeometry x="160" y="400" width="40" height="40" as="geometry" />
        </mxCell>
        <mxCell id="tjpM7EeE18Mc8wkn_uiX-29" value="1" style="whiteSpace=wrap;html=1;aspect=fixed;fontSize=10;" parent="1" vertex="1">
          <mxGeometry x="120" y="440" width="40" height="40" as="geometry" />
        </mxCell>
        <mxCell id="tjpM7EeE18Mc8wkn_uiX-30" value="2" style="whiteSpace=wrap;html=1;aspect=fixed;fontSize=10;" parent="1" vertex="1">
          <mxGeometry x="160" y="440" width="40" height="40" as="geometry" />
        </mxCell>
        <mxCell id="tjpM7EeE18Mc8wkn_uiX-31" value="0" style="whiteSpace=wrap;html=1;aspect=fixed;fontSize=10;" parent="1" vertex="1">
          <mxGeometry x="40" y="480" width="40" height="40" as="geometry" />
        </mxCell>
        <mxCell id="tjpM7EeE18Mc8wkn_uiX-32" value="2" style="whiteSpace=wrap;html=1;aspect=fixed;fontSize=10;" parent="1" vertex="1">
          <mxGeometry x="80" y="480" width="40" height="40" as="geometry" />
        </mxCell>
        <mxCell id="tjpM7EeE18Mc8wkn_uiX-33" value="1" style="whiteSpace=wrap;html=1;aspect=fixed;fontSize=10;" parent="1" vertex="1">
          <mxGeometry x="40" y="520" width="40" height="40" as="geometry" />
        </mxCell>
        <mxCell id="tjpM7EeE18Mc8wkn_uiX-34" value="0" style="whiteSpace=wrap;html=1;aspect=fixed;fontSize=10;" parent="1" vertex="1">
          <mxGeometry x="80" y="520" width="40" height="40" as="geometry" />
        </mxCell>
        <mxCell id="tjpM7EeE18Mc8wkn_uiX-35" value="1" style="whiteSpace=wrap;html=1;aspect=fixed;fontSize=10;" parent="1" vertex="1">
          <mxGeometry x="120" y="480" width="40" height="40" as="geometry" />
        </mxCell>
        <mxCell id="tjpM7EeE18Mc8wkn_uiX-36" value="0" style="whiteSpace=wrap;html=1;aspect=fixed;fontSize=10;" parent="1" vertex="1">
          <mxGeometry x="160" y="480" width="40" height="40" as="geometry" />
        </mxCell>
        <mxCell id="tjpM7EeE18Mc8wkn_uiX-37" value="0" style="whiteSpace=wrap;html=1;aspect=fixed;fontSize=10;" parent="1" vertex="1">
          <mxGeometry x="120" y="520" width="40" height="40" as="geometry" />
        </mxCell>
        <mxCell id="tjpM7EeE18Mc8wkn_uiX-38" value="1" style="whiteSpace=wrap;html=1;aspect=fixed;fontSize=10;" parent="1" vertex="1">
          <mxGeometry x="160" y="520" width="40" height="40" as="geometry" />
        </mxCell>
        <mxCell id="tjpM7EeE18Mc8wkn_uiX-39" value="0" style="whiteSpace=wrap;html=1;aspect=fixed;fontSize=10;" parent="1" vertex="1">
          <mxGeometry x="240" y="440" width="40" height="40" as="geometry" />
        </mxCell>
        <mxCell id="tjpM7EeE18Mc8wkn_uiX-40" value="1" style="whiteSpace=wrap;html=1;aspect=fixed;fontSize=10;" parent="1" vertex="1">
          <mxGeometry x="280" y="440" width="40" height="40" as="geometry" />
        </mxCell>
        <mxCell id="tjpM7EeE18Mc8wkn_uiX-41" value="-1" style="whiteSpace=wrap;html=1;aspect=fixed;fontSize=10;" parent="1" vertex="1">
          <mxGeometry x="240" y="480" width="40" height="40" as="geometry" />
        </mxCell>
        <mxCell id="tjpM7EeE18Mc8wkn_uiX-42" value="2" style="whiteSpace=wrap;html=1;aspect=fixed;fontSize=10;" parent="1" vertex="1">
          <mxGeometry x="280" y="480" width="40" height="40" as="geometry" />
        </mxCell>
        <mxCell id="tjpM7EeE18Mc8wkn_uiX-43" value="" style="shape=sumEllipse;perimeter=ellipsePerimeter;whiteSpace=wrap;html=1;backgroundOutline=1;fontSize=10;" parent="1" vertex="1">
          <mxGeometry x="210" y="470" width="20" height="20" as="geometry" />
        </mxCell>
        <mxCell id="tjpM7EeE18Mc8wkn_uiX-44" value="" style="shape=singleArrow;whiteSpace=wrap;html=1;fontSize=10;arrowWidth=0.441269841269842;arrowSize=0.36904761904761946;" parent="1" vertex="1">
          <mxGeometry x="330" y="470" width="60" height="22.5" as="geometry" />
        </mxCell>
        <mxCell id="tjpM7EeE18Mc8wkn_uiX-45" value="1" style="whiteSpace=wrap;html=1;aspect=fixed;fontSize=10;fillColor=#dae8fc;strokeColor=#6c8ebf;" parent="1" vertex="1">
          <mxGeometry x="400" y="420" width="40" height="40" as="geometry" />
        </mxCell>
        <mxCell id="tjpM7EeE18Mc8wkn_uiX-46" value="" style="whiteSpace=wrap;html=1;aspect=fixed;fontSize=10;" parent="1" vertex="1">
          <mxGeometry x="440" y="420" width="40" height="40" as="geometry" />
        </mxCell>
        <mxCell id="tjpM7EeE18Mc8wkn_uiX-47" value="" style="whiteSpace=wrap;html=1;aspect=fixed;fontSize=10;" parent="1" vertex="1">
          <mxGeometry x="400" y="460" width="40" height="40" as="geometry" />
        </mxCell>
        <mxCell id="tjpM7EeE18Mc8wkn_uiX-48" value="" style="whiteSpace=wrap;html=1;aspect=fixed;fontSize=10;" parent="1" vertex="1">
          <mxGeometry x="440" y="460" width="40" height="40" as="geometry" />
        </mxCell>
        <mxCell id="tjpM7EeE18Mc8wkn_uiX-49" value="" style="whiteSpace=wrap;html=1;aspect=fixed;fontSize=10;" parent="1" vertex="1">
          <mxGeometry x="480" y="420" width="40" height="40" as="geometry" />
        </mxCell>
        <mxCell id="tjpM7EeE18Mc8wkn_uiX-50" value="" style="whiteSpace=wrap;html=1;aspect=fixed;fontSize=10;" parent="1" vertex="1">
          <mxGeometry x="480" y="460" width="40" height="40" as="geometry" />
        </mxCell>
        <mxCell id="tjpM7EeE18Mc8wkn_uiX-51" value="" style="whiteSpace=wrap;html=1;aspect=fixed;fontSize=10;" parent="1" vertex="1">
          <mxGeometry x="400" y="500" width="40" height="40" as="geometry" />
        </mxCell>
        <mxCell id="tjpM7EeE18Mc8wkn_uiX-52" value="" style="whiteSpace=wrap;html=1;aspect=fixed;fontSize=10;" parent="1" vertex="1">
          <mxGeometry x="440" y="500" width="40" height="40" as="geometry" />
        </mxCell>
        <mxCell id="tjpM7EeE18Mc8wkn_uiX-53" value="" style="whiteSpace=wrap;html=1;aspect=fixed;fontSize=10;" parent="1" vertex="1">
          <mxGeometry x="480" y="500" width="40" height="40" as="geometry" />
        </mxCell>
        <mxCell id="WcULb3K379GdXMBn0XlS-1" value="1" style="whiteSpace=wrap;html=1;aspect=fixed;fontSize=10;" parent="1" vertex="1">
          <mxGeometry x="40" y="600" width="40" height="40" as="geometry" />
        </mxCell>
        <mxCell id="WcULb3K379GdXMBn0XlS-2" value="0" style="whiteSpace=wrap;html=1;aspect=fixed;fontSize=10;fillColor=#ffe6cc;strokeColor=#d79b00;" parent="1" vertex="1">
          <mxGeometry x="80" y="600" width="40" height="40" as="geometry" />
        </mxCell>
        <mxCell id="WcULb3K379GdXMBn0XlS-3" value="-1" style="whiteSpace=wrap;html=1;aspect=fixed;fontSize=10;" parent="1" vertex="1">
          <mxGeometry x="40" y="640" width="40" height="40" as="geometry" />
        </mxCell>
        <mxCell id="WcULb3K379GdXMBn0XlS-4" value="0" style="whiteSpace=wrap;html=1;aspect=fixed;fontSize=10;fillColor=#ffe6cc;strokeColor=#d79b00;" parent="1" vertex="1">
          <mxGeometry x="80" y="640" width="40" height="40" as="geometry" />
        </mxCell>
        <mxCell id="WcULb3K379GdXMBn0XlS-5" value="-2" style="whiteSpace=wrap;html=1;aspect=fixed;fontSize=10;fillColor=#ffe6cc;strokeColor=#d79b00;" parent="1" vertex="1">
          <mxGeometry x="120" y="600" width="40" height="40" as="geometry" />
        </mxCell>
        <mxCell id="WcULb3K379GdXMBn0XlS-6" value="1" style="whiteSpace=wrap;html=1;aspect=fixed;fontSize=10;" parent="1" vertex="1">
          <mxGeometry x="160" y="600" width="40" height="40" as="geometry" />
        </mxCell>
        <mxCell id="WcULb3K379GdXMBn0XlS-7" value="1" style="whiteSpace=wrap;html=1;aspect=fixed;fontSize=10;fillColor=#ffe6cc;strokeColor=#d79b00;" parent="1" vertex="1">
          <mxGeometry x="120" y="640" width="40" height="40" as="geometry" />
        </mxCell>
        <mxCell id="WcULb3K379GdXMBn0XlS-8" value="2" style="whiteSpace=wrap;html=1;aspect=fixed;fontSize=10;" parent="1" vertex="1">
          <mxGeometry x="160" y="640" width="40" height="40" as="geometry" />
        </mxCell>
        <mxCell id="WcULb3K379GdXMBn0XlS-9" value="0" style="whiteSpace=wrap;html=1;aspect=fixed;fontSize=10;" parent="1" vertex="1">
          <mxGeometry x="40" y="680" width="40" height="40" as="geometry" />
        </mxCell>
        <mxCell id="WcULb3K379GdXMBn0XlS-10" value="2" style="whiteSpace=wrap;html=1;aspect=fixed;fontSize=10;" parent="1" vertex="1">
          <mxGeometry x="80" y="680" width="40" height="40" as="geometry" />
        </mxCell>
        <mxCell id="WcULb3K379GdXMBn0XlS-11" value="1" style="whiteSpace=wrap;html=1;aspect=fixed;fontSize=10;" parent="1" vertex="1">
          <mxGeometry x="40" y="720" width="40" height="40" as="geometry" />
        </mxCell>
        <mxCell id="WcULb3K379GdXMBn0XlS-12" value="0" style="whiteSpace=wrap;html=1;aspect=fixed;fontSize=10;" parent="1" vertex="1">
          <mxGeometry x="80" y="720" width="40" height="40" as="geometry" />
        </mxCell>
        <mxCell id="WcULb3K379GdXMBn0XlS-13" value="1" style="whiteSpace=wrap;html=1;aspect=fixed;fontSize=10;" parent="1" vertex="1">
          <mxGeometry x="120" y="680" width="40" height="40" as="geometry" />
        </mxCell>
        <mxCell id="WcULb3K379GdXMBn0XlS-14" value="0" style="whiteSpace=wrap;html=1;aspect=fixed;fontSize=10;" parent="1" vertex="1">
          <mxGeometry x="160" y="680" width="40" height="40" as="geometry" />
        </mxCell>
        <mxCell id="WcULb3K379GdXMBn0XlS-15" value="0" style="whiteSpace=wrap;html=1;aspect=fixed;fontSize=10;" parent="1" vertex="1">
          <mxGeometry x="120" y="720" width="40" height="40" as="geometry" />
        </mxCell>
        <mxCell id="WcULb3K379GdXMBn0XlS-16" value="1" style="whiteSpace=wrap;html=1;aspect=fixed;fontSize=10;" parent="1" vertex="1">
          <mxGeometry x="160" y="720" width="40" height="40" as="geometry" />
        </mxCell>
        <mxCell id="WcULb3K379GdXMBn0XlS-17" value="0" style="whiteSpace=wrap;html=1;aspect=fixed;fontSize=10;" parent="1" vertex="1">
          <mxGeometry x="240" y="640" width="40" height="40" as="geometry" />
        </mxCell>
        <mxCell id="WcULb3K379GdXMBn0XlS-18" value="1" style="whiteSpace=wrap;html=1;aspect=fixed;fontSize=10;" parent="1" vertex="1">
          <mxGeometry x="280" y="640" width="40" height="40" as="geometry" />
        </mxCell>
        <mxCell id="WcULb3K379GdXMBn0XlS-19" value="-1" style="whiteSpace=wrap;html=1;aspect=fixed;fontSize=10;" parent="1" vertex="1">
          <mxGeometry x="240" y="680" width="40" height="40" as="geometry" />
        </mxCell>
        <mxCell id="WcULb3K379GdXMBn0XlS-20" value="2" style="whiteSpace=wrap;html=1;aspect=fixed;fontSize=10;" parent="1" vertex="1">
          <mxGeometry x="280" y="680" width="40" height="40" as="geometry" />
        </mxCell>
        <mxCell id="WcULb3K379GdXMBn0XlS-21" value="" style="shape=sumEllipse;perimeter=ellipsePerimeter;whiteSpace=wrap;html=1;backgroundOutline=1;fontSize=10;" parent="1" vertex="1">
          <mxGeometry x="210" y="670" width="20" height="20" as="geometry" />
        </mxCell>
        <mxCell id="WcULb3K379GdXMBn0XlS-23" value="1" style="whiteSpace=wrap;html=1;aspect=fixed;fontSize=10;" parent="1" vertex="1">
          <mxGeometry x="400" y="620" width="40" height="40" as="geometry" />
        </mxCell>
        <mxCell id="WcULb3K379GdXMBn0XlS-24" value="0" style="whiteSpace=wrap;html=1;aspect=fixed;fontSize=10;fillColor=#dae8fc;strokeColor=#6c8ebf;" parent="1" vertex="1">
          <mxGeometry x="440" y="620" width="40" height="40" as="geometry" />
        </mxCell>
        <mxCell id="WcULb3K379GdXMBn0XlS-25" value="" style="whiteSpace=wrap;html=1;aspect=fixed;fontSize=10;" parent="1" vertex="1">
          <mxGeometry x="400" y="660" width="40" height="40" as="geometry" />
        </mxCell>
        <mxCell id="WcULb3K379GdXMBn0XlS-26" value="" style="whiteSpace=wrap;html=1;aspect=fixed;fontSize=10;" parent="1" vertex="1">
          <mxGeometry x="440" y="660" width="40" height="40" as="geometry" />
        </mxCell>
        <mxCell id="WcULb3K379GdXMBn0XlS-27" value="" style="whiteSpace=wrap;html=1;aspect=fixed;fontSize=10;" parent="1" vertex="1">
          <mxGeometry x="480" y="620" width="40" height="40" as="geometry" />
        </mxCell>
        <mxCell id="WcULb3K379GdXMBn0XlS-28" value="" style="whiteSpace=wrap;html=1;aspect=fixed;fontSize=10;" parent="1" vertex="1">
          <mxGeometry x="480" y="660" width="40" height="40" as="geometry" />
        </mxCell>
        <mxCell id="WcULb3K379GdXMBn0XlS-29" value="" style="whiteSpace=wrap;html=1;aspect=fixed;fontSize=10;" parent="1" vertex="1">
          <mxGeometry x="400" y="700" width="40" height="40" as="geometry" />
        </mxCell>
        <mxCell id="WcULb3K379GdXMBn0XlS-30" value="" style="whiteSpace=wrap;html=1;aspect=fixed;fontSize=10;" parent="1" vertex="1">
          <mxGeometry x="440" y="700" width="40" height="40" as="geometry" />
        </mxCell>
        <mxCell id="WcULb3K379GdXMBn0XlS-31" value="" style="whiteSpace=wrap;html=1;aspect=fixed;fontSize=10;" parent="1" vertex="1">
          <mxGeometry x="480" y="700" width="40" height="40" as="geometry" />
        </mxCell>
        <mxCell id="WcULb3K379GdXMBn0XlS-34" value="" style="shape=singleArrow;whiteSpace=wrap;html=1;fontSize=10;arrowWidth=0.441269841269842;arrowSize=0.36904761904761946;" parent="1" vertex="1">
          <mxGeometry x="330" y="670" width="60" height="22.5" as="geometry" />
        </mxCell>
      </root>
    </mxGraphModel>
  </diagram>
  <diagram id="CGVXDhqw8AVC7hC4kRDL" name="twostep-cnn">
    <mxGraphModel dx="1434" dy="923" grid="1" gridSize="10" guides="1" tooltips="1" connect="1" arrows="1" fold="1" page="1" pageScale="1" pageWidth="827" pageHeight="1169" math="0" shadow="0">
      <root>
        <mxCell id="0" />
        <mxCell id="1" parent="0" />
        <mxCell id="EcVTMk0ehTXhsGFFw-ML-1" style="edgeStyle=orthogonalEdgeStyle;rounded=0;orthogonalLoop=1;jettySize=auto;html=1;entryX=0;entryY=0.5;entryDx=0;entryDy=0;fontSize=12;" edge="1" parent="1" source="EcVTMk0ehTXhsGFFw-ML-2" target="EcVTMk0ehTXhsGFFw-ML-5">
          <mxGeometry relative="1" as="geometry" />
        </mxCell>
        <mxCell id="EcVTMk0ehTXhsGFFw-ML-2" value="Входные данные" style="rounded=0;whiteSpace=wrap;html=1;" vertex="1" parent="1">
          <mxGeometry x="40" y="100" width="120" height="60" as="geometry" />
        </mxCell>
        <mxCell id="EcVTMk0ehTXhsGFFw-ML-3" style="edgeStyle=orthogonalEdgeStyle;rounded=0;orthogonalLoop=1;jettySize=auto;html=1;entryX=0;entryY=0.5;entryDx=0;entryDy=0;fontSize=12;" edge="1" parent="1" source="EcVTMk0ehTXhsGFFw-ML-5" target="EcVTMk0ehTXhsGFFw-ML-7">
          <mxGeometry relative="1" as="geometry" />
        </mxCell>
        <mxCell id="EcVTMk0ehTXhsGFFw-ML-4" style="edgeStyle=orthogonalEdgeStyle;rounded=0;orthogonalLoop=1;jettySize=auto;html=1;entryX=0;entryY=0.5;entryDx=0;entryDy=0;fontSize=12;" edge="1" parent="1" source="EcVTMk0ehTXhsGFFw-ML-5" target="EcVTMk0ehTXhsGFFw-ML-9">
          <mxGeometry relative="1" as="geometry" />
        </mxCell>
        <mxCell id="EcVTMk0ehTXhsGFFw-ML-5" value="&lt;font style=&quot;font-size: 12px;&quot;&gt;Поиск RoI&lt;/font&gt;" style="rounded=0;whiteSpace=wrap;html=1;" vertex="1" parent="1">
          <mxGeometry x="200" y="100" width="120" height="60" as="geometry" />
        </mxCell>
        <mxCell id="EcVTMk0ehTXhsGFFw-ML-6" style="edgeStyle=orthogonalEdgeStyle;rounded=0;orthogonalLoop=1;jettySize=auto;html=1;entryX=0;entryY=0.5;entryDx=0;entryDy=0;fontSize=12;" edge="1" parent="1" source="EcVTMk0ehTXhsGFFw-ML-7" target="EcVTMk0ehTXhsGFFw-ML-10">
          <mxGeometry relative="1" as="geometry" />
        </mxCell>
        <mxCell id="EcVTMk0ehTXhsGFFw-ML-7" value="&lt;font style=&quot;font-size: 12px;&quot;&gt;Классификация RoI&lt;/font&gt;" style="rounded=0;whiteSpace=wrap;html=1;" vertex="1" parent="1">
          <mxGeometry x="360" y="60" width="120" height="60" as="geometry" />
        </mxCell>
        <mxCell id="EcVTMk0ehTXhsGFFw-ML-8" style="edgeStyle=orthogonalEdgeStyle;rounded=0;orthogonalLoop=1;jettySize=auto;html=1;entryX=0;entryY=0.5;entryDx=0;entryDy=0;fontSize=12;" edge="1" parent="1" source="EcVTMk0ehTXhsGFFw-ML-9" target="EcVTMk0ehTXhsGFFw-ML-10">
          <mxGeometry relative="1" as="geometry" />
        </mxCell>
        <mxCell id="EcVTMk0ehTXhsGFFw-ML-9" value="&lt;font style=&quot;font-size: 12px;&quot;&gt;Регрессия RoI&lt;/font&gt;" style="rounded=0;whiteSpace=wrap;html=1;" vertex="1" parent="1">
          <mxGeometry x="360" y="140" width="120" height="60" as="geometry" />
        </mxCell>
        <mxCell id="EcVTMk0ehTXhsGFFw-ML-10" value="Выходные данные" style="rounded=0;whiteSpace=wrap;html=1;" vertex="1" parent="1">
          <mxGeometry x="520" y="100" width="120" height="60" as="geometry" />
        </mxCell>
      </root>
    </mxGraphModel>
  </diagram>
  <diagram id="OleQTLG6HXE4dUd3UUzt" name="one-step-cnn">
    <mxGraphModel dx="1434" dy="923" grid="1" gridSize="10" guides="1" tooltips="1" connect="1" arrows="1" fold="1" page="1" pageScale="1" pageWidth="827" pageHeight="1169" math="0" shadow="0">
      <root>
        <mxCell id="0" />
        <mxCell id="1" parent="0" />
        <mxCell id="kgZjAag9ZN0sy9iPQrHo-1" style="edgeStyle=orthogonalEdgeStyle;rounded=0;orthogonalLoop=1;jettySize=auto;html=1;entryX=0;entryY=0.5;entryDx=0;entryDy=0;fontSize=12;" edge="1" parent="1" source="kgZjAag9ZN0sy9iPQrHo-2" target="kgZjAag9ZN0sy9iPQrHo-4">
          <mxGeometry relative="1" as="geometry" />
        </mxCell>
        <mxCell id="kgZjAag9ZN0sy9iPQrHo-2" value="Входные&lt;br&gt;данные" style="rounded=0;whiteSpace=wrap;html=1;" vertex="1" parent="1">
          <mxGeometry x="40" y="100" width="120" height="60" as="geometry" />
        </mxCell>
        <mxCell id="kgZjAag9ZN0sy9iPQrHo-3" style="edgeStyle=orthogonalEdgeStyle;rounded=0;orthogonalLoop=1;jettySize=auto;html=1;entryX=0;entryY=0.5;entryDx=0;entryDy=0;fontSize=12;" edge="1" parent="1" source="kgZjAag9ZN0sy9iPQrHo-4" target="kgZjAag9ZN0sy9iPQrHo-5">
          <mxGeometry relative="1" as="geometry" />
        </mxCell>
        <mxCell id="kgZjAag9ZN0sy9iPQrHo-4" value="CNN" style="rounded=0;whiteSpace=wrap;html=1;" vertex="1" parent="1">
          <mxGeometry x="200" y="100" width="120" height="60" as="geometry" />
        </mxCell>
        <mxCell id="kgZjAag9ZN0sy9iPQrHo-5" value="Выходные&lt;br&gt;данные" style="rounded=0;whiteSpace=wrap;html=1;" vertex="1" parent="1">
          <mxGeometry x="360" y="100" width="120" height="60" as="geometry" />
        </mxCell>
      </root>
    </mxGraphModel>
  </diagram>
  <diagram id="H1pdvjRPb3G1XemddB7_" name="boosting">
    <mxGraphModel dx="954" dy="623" grid="1" gridSize="10" guides="1" tooltips="1" connect="1" arrows="1" fold="1" page="1" pageScale="1" pageWidth="827" pageHeight="1169" math="0" shadow="0">
      <root>
        <mxCell id="0" />
        <mxCell id="1" parent="0" />
        <mxCell id="3g-XTcKaoBIr5_-N1BlH-38" style="edgeStyle=orthogonalEdgeStyle;rounded=0;orthogonalLoop=1;jettySize=auto;html=1;entryX=0;entryY=0.5;entryDx=0;entryDy=0;" parent="1" source="3g-XTcKaoBIr5_-N1BlH-4" target="3g-XTcKaoBIr5_-N1BlH-8" edge="1">
          <mxGeometry relative="1" as="geometry" />
        </mxCell>
        <mxCell id="3g-XTcKaoBIr5_-N1BlH-4" value="Обучающая&lt;br&gt;выборка" style="shape=cylinder3;whiteSpace=wrap;html=1;boundedLbl=1;backgroundOutline=1;size=15;" parent="1" vertex="1">
          <mxGeometry x="40" y="40" width="80" height="100" as="geometry" />
        </mxCell>
        <mxCell id="3g-XTcKaoBIr5_-N1BlH-7" style="edgeStyle=orthogonalEdgeStyle;rounded=0;orthogonalLoop=1;jettySize=auto;html=1;entryX=0;entryY=0.5;entryDx=0;entryDy=0;" parent="1" source="3g-XTcKaoBIr5_-N1BlH-8" target="3g-XTcKaoBIr5_-N1BlH-10" edge="1">
          <mxGeometry relative="1" as="geometry" />
        </mxCell>
        <mxCell id="3g-XTcKaoBIr5_-N1BlH-8" value="Алгоритм&lt;br&gt;обучения 1" style="rounded=1;whiteSpace=wrap;html=1;" parent="1" vertex="1">
          <mxGeometry x="310" y="60" width="120" height="60" as="geometry" />
        </mxCell>
        <mxCell id="3g-XTcKaoBIr5_-N1BlH-9" style="edgeStyle=orthogonalEdgeStyle;rounded=0;orthogonalLoop=1;jettySize=auto;html=1;entryX=0;entryY=0.5;entryDx=0;entryDy=0;entryPerimeter=0;" parent="1" source="3g-XTcKaoBIr5_-N1BlH-10" target="3g-XTcKaoBIr5_-N1BlH-18" edge="1">
          <mxGeometry relative="1" as="geometry" />
        </mxCell>
        <mxCell id="3g-XTcKaoBIr5_-N1BlH-40" style="edgeStyle=orthogonalEdgeStyle;rounded=0;orthogonalLoop=1;jettySize=auto;html=1;entryX=0.5;entryY=0;entryDx=0;entryDy=0;" parent="1" source="3g-XTcKaoBIr5_-N1BlH-10" target="3g-XTcKaoBIr5_-N1BlH-12" edge="1">
          <mxGeometry relative="1" as="geometry">
            <Array as="points">
              <mxPoint x="530" y="140" />
              <mxPoint x="220" y="140" />
            </Array>
          </mxGeometry>
        </mxCell>
        <mxCell id="3g-XTcKaoBIr5_-N1BlH-10" value="Классификатор 1" style="rounded=1;whiteSpace=wrap;html=1;" parent="1" vertex="1">
          <mxGeometry x="470" y="60" width="120" height="60" as="geometry" />
        </mxCell>
        <mxCell id="3g-XTcKaoBIr5_-N1BlH-11" style="edgeStyle=orthogonalEdgeStyle;rounded=0;orthogonalLoop=1;jettySize=auto;html=1;entryX=0;entryY=0.5;entryDx=0;entryDy=0;" parent="1" source="3g-XTcKaoBIr5_-N1BlH-12" target="3g-XTcKaoBIr5_-N1BlH-14" edge="1">
          <mxGeometry relative="1" as="geometry" />
        </mxCell>
        <mxCell id="3g-XTcKaoBIr5_-N1BlH-12" value="Выборка 2" style="rounded=1;whiteSpace=wrap;html=1;" parent="1" vertex="1">
          <mxGeometry x="160" y="160" width="120" height="60" as="geometry" />
        </mxCell>
        <mxCell id="3g-XTcKaoBIr5_-N1BlH-13" style="edgeStyle=orthogonalEdgeStyle;rounded=0;orthogonalLoop=1;jettySize=auto;html=1;entryX=0;entryY=0.5;entryDx=0;entryDy=0;" parent="1" source="3g-XTcKaoBIr5_-N1BlH-14" target="3g-XTcKaoBIr5_-N1BlH-16" edge="1">
          <mxGeometry relative="1" as="geometry" />
        </mxCell>
        <mxCell id="3g-XTcKaoBIr5_-N1BlH-14" value="Алгоритм&lt;br&gt;обучения 2" style="rounded=1;whiteSpace=wrap;html=1;" parent="1" vertex="1">
          <mxGeometry x="310" y="160" width="120" height="60" as="geometry" />
        </mxCell>
        <mxCell id="3g-XTcKaoBIr5_-N1BlH-15" style="edgeStyle=orthogonalEdgeStyle;rounded=0;orthogonalLoop=1;jettySize=auto;html=1;entryX=0;entryY=0.5;entryDx=0;entryDy=0;entryPerimeter=0;" parent="1" source="3g-XTcKaoBIr5_-N1BlH-16" target="3g-XTcKaoBIr5_-N1BlH-18" edge="1">
          <mxGeometry relative="1" as="geometry" />
        </mxCell>
        <mxCell id="3g-XTcKaoBIr5_-N1BlH-16" value="Классификатор 2" style="rounded=1;whiteSpace=wrap;html=1;" parent="1" vertex="1">
          <mxGeometry x="470" y="160" width="120" height="60" as="geometry" />
        </mxCell>
        <mxCell id="3g-XTcKaoBIr5_-N1BlH-17" style="edgeStyle=orthogonalEdgeStyle;rounded=0;orthogonalLoop=1;jettySize=auto;html=1;entryX=0.5;entryY=0;entryDx=0;entryDy=0;" parent="1" source="3g-XTcKaoBIr5_-N1BlH-18" target="3g-XTcKaoBIr5_-N1BlH-19" edge="1">
          <mxGeometry relative="1" as="geometry" />
        </mxCell>
        <mxCell id="3g-XTcKaoBIr5_-N1BlH-18" value="Комбинация&lt;br&gt;классификаторов" style="shape=cylinder3;whiteSpace=wrap;html=1;boundedLbl=1;backgroundOutline=1;size=15;" parent="1" vertex="1">
          <mxGeometry x="640" y="140" width="120" height="100" as="geometry" />
        </mxCell>
        <mxCell id="3g-XTcKaoBIr5_-N1BlH-19" value="Окончательное решение" style="rounded=0;whiteSpace=wrap;html=1;" parent="1" vertex="1">
          <mxGeometry x="640" y="280" width="120" height="60" as="geometry" />
        </mxCell>
        <mxCell id="3g-XTcKaoBIr5_-N1BlH-20" style="edgeStyle=orthogonalEdgeStyle;rounded=0;orthogonalLoop=1;jettySize=auto;html=1;entryX=0;entryY=0.5;entryDx=0;entryDy=0;" parent="1" source="3g-XTcKaoBIr5_-N1BlH-21" target="3g-XTcKaoBIr5_-N1BlH-23" edge="1">
          <mxGeometry relative="1" as="geometry" />
        </mxCell>
        <mxCell id="3g-XTcKaoBIr5_-N1BlH-21" value="Выборка N" style="rounded=1;whiteSpace=wrap;html=1;" parent="1" vertex="1">
          <mxGeometry x="160" y="280" width="120" height="60" as="geometry" />
        </mxCell>
        <mxCell id="3g-XTcKaoBIr5_-N1BlH-22" style="edgeStyle=orthogonalEdgeStyle;rounded=0;orthogonalLoop=1;jettySize=auto;html=1;entryX=0;entryY=0.5;entryDx=0;entryDy=0;" parent="1" source="3g-XTcKaoBIr5_-N1BlH-23" target="3g-XTcKaoBIr5_-N1BlH-25" edge="1">
          <mxGeometry relative="1" as="geometry" />
        </mxCell>
        <mxCell id="3g-XTcKaoBIr5_-N1BlH-23" value="Алгоритм&lt;br&gt;обучения N" style="rounded=1;whiteSpace=wrap;html=1;" parent="1" vertex="1">
          <mxGeometry x="310" y="280" width="120" height="60" as="geometry" />
        </mxCell>
        <mxCell id="3g-XTcKaoBIr5_-N1BlH-24" style="edgeStyle=orthogonalEdgeStyle;rounded=0;orthogonalLoop=1;jettySize=auto;html=1;entryX=0;entryY=0.5;entryDx=0;entryDy=0;entryPerimeter=0;" parent="1" source="3g-XTcKaoBIr5_-N1BlH-25" target="3g-XTcKaoBIr5_-N1BlH-18" edge="1">
          <mxGeometry relative="1" as="geometry" />
        </mxCell>
        <mxCell id="3g-XTcKaoBIr5_-N1BlH-25" value="Классификатор N" style="rounded=1;whiteSpace=wrap;html=1;" parent="1" vertex="1">
          <mxGeometry x="470" y="280" width="120" height="60" as="geometry" />
        </mxCell>
        <mxCell id="3g-XTcKaoBIr5_-N1BlH-26" value="" style="group" parent="1" vertex="1" connectable="0">
          <mxGeometry x="190" y="240" width="60" height="20" as="geometry" />
        </mxCell>
        <mxCell id="3g-XTcKaoBIr5_-N1BlH-27" value="" style="shape=waypoint;sketch=0;fillStyle=solid;size=6;pointerEvents=1;points=[];fillColor=none;resizable=0;rotatable=0;perimeter=centerPerimeter;snapToPoint=1;" parent="3g-XTcKaoBIr5_-N1BlH-26" vertex="1">
          <mxGeometry width="20" height="20" as="geometry" />
        </mxCell>
        <mxCell id="3g-XTcKaoBIr5_-N1BlH-28" value="" style="shape=waypoint;sketch=0;fillStyle=solid;size=6;pointerEvents=1;points=[];fillColor=none;resizable=0;rotatable=0;perimeter=centerPerimeter;snapToPoint=1;" parent="3g-XTcKaoBIr5_-N1BlH-26" vertex="1">
          <mxGeometry x="20" width="20" height="20" as="geometry" />
        </mxCell>
        <mxCell id="3g-XTcKaoBIr5_-N1BlH-29" value="" style="shape=waypoint;sketch=0;fillStyle=solid;size=6;pointerEvents=1;points=[];fillColor=none;resizable=0;rotatable=0;perimeter=centerPerimeter;snapToPoint=1;" parent="3g-XTcKaoBIr5_-N1BlH-26" vertex="1">
          <mxGeometry x="40" width="20" height="20" as="geometry" />
        </mxCell>
        <mxCell id="3g-XTcKaoBIr5_-N1BlH-30" value="" style="group" parent="1" vertex="1" connectable="0">
          <mxGeometry x="340" y="240" width="60" height="20" as="geometry" />
        </mxCell>
        <mxCell id="3g-XTcKaoBIr5_-N1BlH-31" value="" style="shape=waypoint;sketch=0;fillStyle=solid;size=6;pointerEvents=1;points=[];fillColor=none;resizable=0;rotatable=0;perimeter=centerPerimeter;snapToPoint=1;" parent="3g-XTcKaoBIr5_-N1BlH-30" vertex="1">
          <mxGeometry width="20" height="20" as="geometry" />
        </mxCell>
        <mxCell id="3g-XTcKaoBIr5_-N1BlH-32" value="" style="shape=waypoint;sketch=0;fillStyle=solid;size=6;pointerEvents=1;points=[];fillColor=none;resizable=0;rotatable=0;perimeter=centerPerimeter;snapToPoint=1;" parent="3g-XTcKaoBIr5_-N1BlH-30" vertex="1">
          <mxGeometry x="20" width="20" height="20" as="geometry" />
        </mxCell>
        <mxCell id="3g-XTcKaoBIr5_-N1BlH-33" value="" style="shape=waypoint;sketch=0;fillStyle=solid;size=6;pointerEvents=1;points=[];fillColor=none;resizable=0;rotatable=0;perimeter=centerPerimeter;snapToPoint=1;" parent="3g-XTcKaoBIr5_-N1BlH-30" vertex="1">
          <mxGeometry x="40" width="20" height="20" as="geometry" />
        </mxCell>
        <mxCell id="3g-XTcKaoBIr5_-N1BlH-34" value="" style="group" parent="1" vertex="1" connectable="0">
          <mxGeometry x="500" y="240" width="60" height="20" as="geometry" />
        </mxCell>
        <mxCell id="3g-XTcKaoBIr5_-N1BlH-35" value="" style="shape=waypoint;sketch=0;fillStyle=solid;size=6;pointerEvents=1;points=[];fillColor=none;resizable=0;rotatable=0;perimeter=centerPerimeter;snapToPoint=1;" parent="3g-XTcKaoBIr5_-N1BlH-34" vertex="1">
          <mxGeometry width="20" height="20" as="geometry" />
        </mxCell>
        <mxCell id="3g-XTcKaoBIr5_-N1BlH-36" value="" style="shape=waypoint;sketch=0;fillStyle=solid;size=6;pointerEvents=1;points=[];fillColor=none;resizable=0;rotatable=0;perimeter=centerPerimeter;snapToPoint=1;" parent="3g-XTcKaoBIr5_-N1BlH-34" vertex="1">
          <mxGeometry x="20" width="20" height="20" as="geometry" />
        </mxCell>
        <mxCell id="3g-XTcKaoBIr5_-N1BlH-37" value="" style="shape=waypoint;sketch=0;fillStyle=solid;size=6;pointerEvents=1;points=[];fillColor=none;resizable=0;rotatable=0;perimeter=centerPerimeter;snapToPoint=1;" parent="3g-XTcKaoBIr5_-N1BlH-34" vertex="1">
          <mxGeometry x="40" width="20" height="20" as="geometry" />
        </mxCell>
        <mxCell id="3g-XTcKaoBIr5_-N1BlH-44" value="" style="endArrow=classic;html=1;rounded=0;exitX=0.5;exitY=1;exitDx=0;exitDy=0;" parent="1" source="3g-XTcKaoBIr5_-N1BlH-16" edge="1">
          <mxGeometry width="50" height="50" relative="1" as="geometry">
            <mxPoint x="390" y="240" as="sourcePoint" />
            <mxPoint x="530" y="240" as="targetPoint" />
          </mxGeometry>
        </mxCell>
        <mxCell id="3g-XTcKaoBIr5_-N1BlH-45" value="" style="endArrow=classic;html=1;rounded=0;" parent="1" edge="1">
          <mxGeometry width="50" height="50" relative="1" as="geometry">
            <mxPoint x="219.73" y="260" as="sourcePoint" />
            <mxPoint x="219.73" y="280" as="targetPoint" />
          </mxGeometry>
        </mxCell>
      </root>
    </mxGraphModel>
  </diagram>
  <diagram id="n3d-1SyNxE_Js9ki78zg" name="bagging">
    <mxGraphModel dx="954" dy="566" grid="1" gridSize="10" guides="1" tooltips="1" connect="1" arrows="1" fold="1" page="1" pageScale="1" pageWidth="827" pageHeight="1169" math="0" shadow="0">
      <root>
        <mxCell id="0" />
        <mxCell id="1" parent="0" />
        <mxCell id="G0Q8V5i1pN_u4R2LR_K--10" style="edgeStyle=orthogonalEdgeStyle;rounded=0;orthogonalLoop=1;jettySize=auto;html=1;entryX=0;entryY=0.5;entryDx=0;entryDy=0;" parent="1" source="G0Q8V5i1pN_u4R2LR_K--1" target="G0Q8V5i1pN_u4R2LR_K--6" edge="1">
          <mxGeometry relative="1" as="geometry" />
        </mxCell>
        <mxCell id="G0Q8V5i1pN_u4R2LR_K--11" style="edgeStyle=orthogonalEdgeStyle;rounded=0;orthogonalLoop=1;jettySize=auto;html=1;entryX=0;entryY=0.5;entryDx=0;entryDy=0;" parent="1" source="G0Q8V5i1pN_u4R2LR_K--1" target="G0Q8V5i1pN_u4R2LR_K--2" edge="1">
          <mxGeometry relative="1" as="geometry" />
        </mxCell>
        <mxCell id="G0Q8V5i1pN_u4R2LR_K--27" style="edgeStyle=orthogonalEdgeStyle;rounded=0;orthogonalLoop=1;jettySize=auto;html=1;entryX=0;entryY=0.5;entryDx=0;entryDy=0;" parent="1" source="G0Q8V5i1pN_u4R2LR_K--1" target="G0Q8V5i1pN_u4R2LR_K--21" edge="1">
          <mxGeometry relative="1" as="geometry" />
        </mxCell>
        <mxCell id="G0Q8V5i1pN_u4R2LR_K--1" value="Обучающая&lt;br&gt;выборка" style="shape=cylinder3;whiteSpace=wrap;html=1;boundedLbl=1;backgroundOutline=1;size=15;" parent="1" vertex="1">
          <mxGeometry x="40" y="130" width="80" height="100" as="geometry" />
        </mxCell>
        <mxCell id="G0Q8V5i1pN_u4R2LR_K--12" style="edgeStyle=orthogonalEdgeStyle;rounded=0;orthogonalLoop=1;jettySize=auto;html=1;entryX=0;entryY=0.5;entryDx=0;entryDy=0;" parent="1" source="G0Q8V5i1pN_u4R2LR_K--2" target="G0Q8V5i1pN_u4R2LR_K--3" edge="1">
          <mxGeometry relative="1" as="geometry" />
        </mxCell>
        <mxCell id="G0Q8V5i1pN_u4R2LR_K--2" value="Фолд&amp;nbsp;1" style="rounded=1;whiteSpace=wrap;html=1;" parent="1" vertex="1">
          <mxGeometry x="160" y="60" width="120" height="60" as="geometry" />
        </mxCell>
        <mxCell id="G0Q8V5i1pN_u4R2LR_K--13" style="edgeStyle=orthogonalEdgeStyle;rounded=0;orthogonalLoop=1;jettySize=auto;html=1;entryX=0;entryY=0.5;entryDx=0;entryDy=0;" parent="1" source="G0Q8V5i1pN_u4R2LR_K--3" target="G0Q8V5i1pN_u4R2LR_K--4" edge="1">
          <mxGeometry relative="1" as="geometry" />
        </mxCell>
        <mxCell id="G0Q8V5i1pN_u4R2LR_K--3" value="Алгоритм&lt;br&gt;обучения 1" style="rounded=1;whiteSpace=wrap;html=1;" parent="1" vertex="1">
          <mxGeometry x="310" y="60" width="120" height="60" as="geometry" />
        </mxCell>
        <mxCell id="G0Q8V5i1pN_u4R2LR_K--17" style="edgeStyle=orthogonalEdgeStyle;rounded=0;orthogonalLoop=1;jettySize=auto;html=1;entryX=0;entryY=0.5;entryDx=0;entryDy=0;entryPerimeter=0;" parent="1" source="G0Q8V5i1pN_u4R2LR_K--4" target="G0Q8V5i1pN_u4R2LR_K--16" edge="1">
          <mxGeometry relative="1" as="geometry" />
        </mxCell>
        <mxCell id="G0Q8V5i1pN_u4R2LR_K--4" value="Классификатор 1" style="rounded=1;whiteSpace=wrap;html=1;" parent="1" vertex="1">
          <mxGeometry x="470" y="60" width="120" height="60" as="geometry" />
        </mxCell>
        <mxCell id="G0Q8V5i1pN_u4R2LR_K--14" style="edgeStyle=orthogonalEdgeStyle;rounded=0;orthogonalLoop=1;jettySize=auto;html=1;entryX=0;entryY=0.5;entryDx=0;entryDy=0;" parent="1" source="G0Q8V5i1pN_u4R2LR_K--6" target="G0Q8V5i1pN_u4R2LR_K--7" edge="1">
          <mxGeometry relative="1" as="geometry" />
        </mxCell>
        <mxCell id="G0Q8V5i1pN_u4R2LR_K--6" value="Фолд&amp;nbsp;2" style="rounded=1;whiteSpace=wrap;html=1;" parent="1" vertex="1">
          <mxGeometry x="160" y="150" width="120" height="60" as="geometry" />
        </mxCell>
        <mxCell id="G0Q8V5i1pN_u4R2LR_K--15" style="edgeStyle=orthogonalEdgeStyle;rounded=0;orthogonalLoop=1;jettySize=auto;html=1;entryX=0;entryY=0.5;entryDx=0;entryDy=0;" parent="1" source="G0Q8V5i1pN_u4R2LR_K--7" target="G0Q8V5i1pN_u4R2LR_K--8" edge="1">
          <mxGeometry relative="1" as="geometry" />
        </mxCell>
        <mxCell id="G0Q8V5i1pN_u4R2LR_K--7" value="Алгоритм&lt;br&gt;обучения 2" style="rounded=1;whiteSpace=wrap;html=1;" parent="1" vertex="1">
          <mxGeometry x="310" y="150" width="120" height="60" as="geometry" />
        </mxCell>
        <mxCell id="G0Q8V5i1pN_u4R2LR_K--18" style="edgeStyle=orthogonalEdgeStyle;rounded=0;orthogonalLoop=1;jettySize=auto;html=1;entryX=0;entryY=0.5;entryDx=0;entryDy=0;entryPerimeter=0;" parent="1" source="G0Q8V5i1pN_u4R2LR_K--8" target="G0Q8V5i1pN_u4R2LR_K--16" edge="1">
          <mxGeometry relative="1" as="geometry" />
        </mxCell>
        <mxCell id="G0Q8V5i1pN_u4R2LR_K--8" value="Классификатор 2" style="rounded=1;whiteSpace=wrap;html=1;" parent="1" vertex="1">
          <mxGeometry x="470" y="150" width="120" height="60" as="geometry" />
        </mxCell>
        <mxCell id="G0Q8V5i1pN_u4R2LR_K--20" style="edgeStyle=orthogonalEdgeStyle;rounded=0;orthogonalLoop=1;jettySize=auto;html=1;entryX=0.5;entryY=0;entryDx=0;entryDy=0;" parent="1" source="G0Q8V5i1pN_u4R2LR_K--16" target="G0Q8V5i1pN_u4R2LR_K--19" edge="1">
          <mxGeometry relative="1" as="geometry" />
        </mxCell>
        <mxCell id="G0Q8V5i1pN_u4R2LR_K--16" value="Комбинация&lt;br&gt;классификаторов" style="shape=cylinder3;whiteSpace=wrap;html=1;boundedLbl=1;backgroundOutline=1;size=15;" parent="1" vertex="1">
          <mxGeometry x="640" y="130" width="120" height="100" as="geometry" />
        </mxCell>
        <mxCell id="G0Q8V5i1pN_u4R2LR_K--19" value="Окончательное решение" style="rounded=0;whiteSpace=wrap;html=1;" parent="1" vertex="1">
          <mxGeometry x="640" y="270" width="120" height="60" as="geometry" />
        </mxCell>
        <mxCell id="G0Q8V5i1pN_u4R2LR_K--26" style="edgeStyle=orthogonalEdgeStyle;rounded=0;orthogonalLoop=1;jettySize=auto;html=1;entryX=0;entryY=0.5;entryDx=0;entryDy=0;" parent="1" source="G0Q8V5i1pN_u4R2LR_K--21" target="G0Q8V5i1pN_u4R2LR_K--22" edge="1">
          <mxGeometry relative="1" as="geometry" />
        </mxCell>
        <mxCell id="G0Q8V5i1pN_u4R2LR_K--21" value="Фолд&amp;nbsp;N" style="rounded=1;whiteSpace=wrap;html=1;" parent="1" vertex="1">
          <mxGeometry x="160" y="270" width="120" height="60" as="geometry" />
        </mxCell>
        <mxCell id="G0Q8V5i1pN_u4R2LR_K--25" style="edgeStyle=orthogonalEdgeStyle;rounded=0;orthogonalLoop=1;jettySize=auto;html=1;entryX=0;entryY=0.5;entryDx=0;entryDy=0;" parent="1" source="G0Q8V5i1pN_u4R2LR_K--22" target="G0Q8V5i1pN_u4R2LR_K--23" edge="1">
          <mxGeometry relative="1" as="geometry" />
        </mxCell>
        <mxCell id="G0Q8V5i1pN_u4R2LR_K--22" value="Алгоритм&lt;br&gt;обучения N" style="rounded=1;whiteSpace=wrap;html=1;" parent="1" vertex="1">
          <mxGeometry x="310" y="270" width="120" height="60" as="geometry" />
        </mxCell>
        <mxCell id="G0Q8V5i1pN_u4R2LR_K--24" style="edgeStyle=orthogonalEdgeStyle;rounded=0;orthogonalLoop=1;jettySize=auto;html=1;entryX=0;entryY=0.5;entryDx=0;entryDy=0;entryPerimeter=0;" parent="1" source="G0Q8V5i1pN_u4R2LR_K--23" target="G0Q8V5i1pN_u4R2LR_K--16" edge="1">
          <mxGeometry relative="1" as="geometry" />
        </mxCell>
        <mxCell id="G0Q8V5i1pN_u4R2LR_K--23" value="Классификатор N" style="rounded=1;whiteSpace=wrap;html=1;" parent="1" vertex="1">
          <mxGeometry x="470" y="270" width="120" height="60" as="geometry" />
        </mxCell>
        <mxCell id="G0Q8V5i1pN_u4R2LR_K--31" value="" style="group" parent="1" vertex="1" connectable="0">
          <mxGeometry x="190" y="230" width="60" height="20" as="geometry" />
        </mxCell>
        <mxCell id="G0Q8V5i1pN_u4R2LR_K--28" value="" style="shape=waypoint;sketch=0;fillStyle=solid;size=6;pointerEvents=1;points=[];fillColor=none;resizable=0;rotatable=0;perimeter=centerPerimeter;snapToPoint=1;" parent="G0Q8V5i1pN_u4R2LR_K--31" vertex="1">
          <mxGeometry width="20" height="20" as="geometry" />
        </mxCell>
        <mxCell id="G0Q8V5i1pN_u4R2LR_K--29" value="" style="shape=waypoint;sketch=0;fillStyle=solid;size=6;pointerEvents=1;points=[];fillColor=none;resizable=0;rotatable=0;perimeter=centerPerimeter;snapToPoint=1;" parent="G0Q8V5i1pN_u4R2LR_K--31" vertex="1">
          <mxGeometry x="20" width="20" height="20" as="geometry" />
        </mxCell>
        <mxCell id="G0Q8V5i1pN_u4R2LR_K--30" value="" style="shape=waypoint;sketch=0;fillStyle=solid;size=6;pointerEvents=1;points=[];fillColor=none;resizable=0;rotatable=0;perimeter=centerPerimeter;snapToPoint=1;" parent="G0Q8V5i1pN_u4R2LR_K--31" vertex="1">
          <mxGeometry x="40" width="20" height="20" as="geometry" />
        </mxCell>
        <mxCell id="G0Q8V5i1pN_u4R2LR_K--32" value="" style="group" parent="1" vertex="1" connectable="0">
          <mxGeometry x="340" y="230" width="60" height="20" as="geometry" />
        </mxCell>
        <mxCell id="G0Q8V5i1pN_u4R2LR_K--33" value="" style="shape=waypoint;sketch=0;fillStyle=solid;size=6;pointerEvents=1;points=[];fillColor=none;resizable=0;rotatable=0;perimeter=centerPerimeter;snapToPoint=1;" parent="G0Q8V5i1pN_u4R2LR_K--32" vertex="1">
          <mxGeometry width="20" height="20" as="geometry" />
        </mxCell>
        <mxCell id="G0Q8V5i1pN_u4R2LR_K--34" value="" style="shape=waypoint;sketch=0;fillStyle=solid;size=6;pointerEvents=1;points=[];fillColor=none;resizable=0;rotatable=0;perimeter=centerPerimeter;snapToPoint=1;" parent="G0Q8V5i1pN_u4R2LR_K--32" vertex="1">
          <mxGeometry x="20" width="20" height="20" as="geometry" />
        </mxCell>
        <mxCell id="G0Q8V5i1pN_u4R2LR_K--35" value="" style="shape=waypoint;sketch=0;fillStyle=solid;size=6;pointerEvents=1;points=[];fillColor=none;resizable=0;rotatable=0;perimeter=centerPerimeter;snapToPoint=1;" parent="G0Q8V5i1pN_u4R2LR_K--32" vertex="1">
          <mxGeometry x="40" width="20" height="20" as="geometry" />
        </mxCell>
        <mxCell id="G0Q8V5i1pN_u4R2LR_K--36" value="" style="group" parent="1" vertex="1" connectable="0">
          <mxGeometry x="500" y="230" width="60" height="20" as="geometry" />
        </mxCell>
        <mxCell id="G0Q8V5i1pN_u4R2LR_K--37" value="" style="shape=waypoint;sketch=0;fillStyle=solid;size=6;pointerEvents=1;points=[];fillColor=none;resizable=0;rotatable=0;perimeter=centerPerimeter;snapToPoint=1;" parent="G0Q8V5i1pN_u4R2LR_K--36" vertex="1">
          <mxGeometry width="20" height="20" as="geometry" />
        </mxCell>
        <mxCell id="G0Q8V5i1pN_u4R2LR_K--38" value="" style="shape=waypoint;sketch=0;fillStyle=solid;size=6;pointerEvents=1;points=[];fillColor=none;resizable=0;rotatable=0;perimeter=centerPerimeter;snapToPoint=1;" parent="G0Q8V5i1pN_u4R2LR_K--36" vertex="1">
          <mxGeometry x="20" width="20" height="20" as="geometry" />
        </mxCell>
        <mxCell id="G0Q8V5i1pN_u4R2LR_K--39" value="" style="shape=waypoint;sketch=0;fillStyle=solid;size=6;pointerEvents=1;points=[];fillColor=none;resizable=0;rotatable=0;perimeter=centerPerimeter;snapToPoint=1;" parent="G0Q8V5i1pN_u4R2LR_K--36" vertex="1">
          <mxGeometry x="40" width="20" height="20" as="geometry" />
        </mxCell>
      </root>
    </mxGraphModel>
  </diagram>
  <diagram name="stacking" id="69B2BO1HUusX1EtDRrof">
    <mxGraphModel dx="954" dy="566" grid="1" gridSize="10" guides="1" tooltips="1" connect="1" arrows="1" fold="1" page="1" pageScale="1" pageWidth="827" pageHeight="1169" math="0" shadow="0">
      <root>
        <mxCell id="2ckS-WXbooT7DJbzmAUs-0" />
        <mxCell id="2ckS-WXbooT7DJbzmAUs-1" parent="2ckS-WXbooT7DJbzmAUs-0" />
        <mxCell id="2ckS-WXbooT7DJbzmAUs-2" style="edgeStyle=orthogonalEdgeStyle;rounded=0;orthogonalLoop=1;jettySize=auto;html=1;entryX=0;entryY=0.5;entryDx=0;entryDy=0;" edge="1" parent="2ckS-WXbooT7DJbzmAUs-1" source="2ckS-WXbooT7DJbzmAUs-5" target="2ckS-WXbooT7DJbzmAUs-13">
          <mxGeometry relative="1" as="geometry" />
        </mxCell>
        <mxCell id="2ckS-WXbooT7DJbzmAUs-3" style="edgeStyle=orthogonalEdgeStyle;rounded=0;orthogonalLoop=1;jettySize=auto;html=1;entryX=0;entryY=0.5;entryDx=0;entryDy=0;" edge="1" parent="2ckS-WXbooT7DJbzmAUs-1" source="2ckS-WXbooT7DJbzmAUs-5" target="2ckS-WXbooT7DJbzmAUs-7">
          <mxGeometry relative="1" as="geometry" />
        </mxCell>
        <mxCell id="2ckS-WXbooT7DJbzmAUs-4" style="edgeStyle=orthogonalEdgeStyle;rounded=0;orthogonalLoop=1;jettySize=auto;html=1;entryX=0;entryY=0.5;entryDx=0;entryDy=0;" edge="1" parent="2ckS-WXbooT7DJbzmAUs-1" source="2ckS-WXbooT7DJbzmAUs-5" target="2ckS-WXbooT7DJbzmAUs-22">
          <mxGeometry relative="1" as="geometry" />
        </mxCell>
        <mxCell id="2ckS-WXbooT7DJbzmAUs-5" value="Обучающая&lt;br&gt;выборка" style="shape=cylinder3;whiteSpace=wrap;html=1;boundedLbl=1;backgroundOutline=1;size=15;" vertex="1" parent="2ckS-WXbooT7DJbzmAUs-1">
          <mxGeometry x="40" y="130" width="80" height="100" as="geometry" />
        </mxCell>
        <mxCell id="2ckS-WXbooT7DJbzmAUs-6" style="edgeStyle=orthogonalEdgeStyle;rounded=0;orthogonalLoop=1;jettySize=auto;html=1;entryX=0;entryY=0.5;entryDx=0;entryDy=0;" edge="1" parent="2ckS-WXbooT7DJbzmAUs-1" source="2ckS-WXbooT7DJbzmAUs-7" target="2ckS-WXbooT7DJbzmAUs-9">
          <mxGeometry relative="1" as="geometry" />
        </mxCell>
        <mxCell id="2ckS-WXbooT7DJbzmAUs-7" value="Фолд 1" style="rounded=1;whiteSpace=wrap;html=1;" vertex="1" parent="2ckS-WXbooT7DJbzmAUs-1">
          <mxGeometry x="160" y="60" width="120" height="60" as="geometry" />
        </mxCell>
        <mxCell id="2ckS-WXbooT7DJbzmAUs-8" style="edgeStyle=orthogonalEdgeStyle;rounded=0;orthogonalLoop=1;jettySize=auto;html=1;entryX=0;entryY=0.5;entryDx=0;entryDy=0;" edge="1" parent="2ckS-WXbooT7DJbzmAUs-1" source="2ckS-WXbooT7DJbzmAUs-9" target="2ckS-WXbooT7DJbzmAUs-11">
          <mxGeometry relative="1" as="geometry" />
        </mxCell>
        <mxCell id="2ckS-WXbooT7DJbzmAUs-9" value="Алгоритм&lt;br&gt;обучения 1" style="rounded=1;whiteSpace=wrap;html=1;" vertex="1" parent="2ckS-WXbooT7DJbzmAUs-1">
          <mxGeometry x="310" y="60" width="120" height="60" as="geometry" />
        </mxCell>
        <mxCell id="F_jGkpPVdeUcvi4lHSFw-1" style="edgeStyle=orthogonalEdgeStyle;rounded=0;orthogonalLoop=1;jettySize=auto;html=1;entryX=0;entryY=0.5;entryDx=0;entryDy=0;" edge="1" parent="2ckS-WXbooT7DJbzmAUs-1" source="2ckS-WXbooT7DJbzmAUs-11" target="F_jGkpPVdeUcvi4lHSFw-0">
          <mxGeometry relative="1" as="geometry" />
        </mxCell>
        <mxCell id="2ckS-WXbooT7DJbzmAUs-11" value="Классификатор 1" style="rounded=1;whiteSpace=wrap;html=1;" vertex="1" parent="2ckS-WXbooT7DJbzmAUs-1">
          <mxGeometry x="470" y="60" width="120" height="60" as="geometry" />
        </mxCell>
        <mxCell id="2ckS-WXbooT7DJbzmAUs-12" style="edgeStyle=orthogonalEdgeStyle;rounded=0;orthogonalLoop=1;jettySize=auto;html=1;entryX=0;entryY=0.5;entryDx=0;entryDy=0;" edge="1" parent="2ckS-WXbooT7DJbzmAUs-1" source="2ckS-WXbooT7DJbzmAUs-13" target="2ckS-WXbooT7DJbzmAUs-15">
          <mxGeometry relative="1" as="geometry" />
        </mxCell>
        <mxCell id="2ckS-WXbooT7DJbzmAUs-13" value="Фолд&amp;nbsp;2" style="rounded=1;whiteSpace=wrap;html=1;" vertex="1" parent="2ckS-WXbooT7DJbzmAUs-1">
          <mxGeometry x="160" y="150" width="120" height="60" as="geometry" />
        </mxCell>
        <mxCell id="2ckS-WXbooT7DJbzmAUs-14" style="edgeStyle=orthogonalEdgeStyle;rounded=0;orthogonalLoop=1;jettySize=auto;html=1;entryX=0;entryY=0.5;entryDx=0;entryDy=0;" edge="1" parent="2ckS-WXbooT7DJbzmAUs-1" source="2ckS-WXbooT7DJbzmAUs-15" target="2ckS-WXbooT7DJbzmAUs-17">
          <mxGeometry relative="1" as="geometry" />
        </mxCell>
        <mxCell id="2ckS-WXbooT7DJbzmAUs-15" value="Алгоритм&lt;br&gt;обучения 2" style="rounded=1;whiteSpace=wrap;html=1;" vertex="1" parent="2ckS-WXbooT7DJbzmAUs-1">
          <mxGeometry x="310" y="150" width="120" height="60" as="geometry" />
        </mxCell>
        <mxCell id="F_jGkpPVdeUcvi4lHSFw-2" style="edgeStyle=orthogonalEdgeStyle;rounded=0;orthogonalLoop=1;jettySize=auto;html=1;entryX=0;entryY=0.5;entryDx=0;entryDy=0;" edge="1" parent="2ckS-WXbooT7DJbzmAUs-1" source="2ckS-WXbooT7DJbzmAUs-17" target="F_jGkpPVdeUcvi4lHSFw-0">
          <mxGeometry relative="1" as="geometry" />
        </mxCell>
        <mxCell id="2ckS-WXbooT7DJbzmAUs-17" value="Классификатор 2" style="rounded=1;whiteSpace=wrap;html=1;" vertex="1" parent="2ckS-WXbooT7DJbzmAUs-1">
          <mxGeometry x="470" y="150" width="120" height="60" as="geometry" />
        </mxCell>
        <mxCell id="2ckS-WXbooT7DJbzmAUs-20" value="Окончательное решение" style="rounded=0;whiteSpace=wrap;html=1;" vertex="1" parent="2ckS-WXbooT7DJbzmAUs-1">
          <mxGeometry x="640" y="270" width="120" height="60" as="geometry" />
        </mxCell>
        <mxCell id="2ckS-WXbooT7DJbzmAUs-21" style="edgeStyle=orthogonalEdgeStyle;rounded=0;orthogonalLoop=1;jettySize=auto;html=1;entryX=0;entryY=0.5;entryDx=0;entryDy=0;" edge="1" parent="2ckS-WXbooT7DJbzmAUs-1" source="2ckS-WXbooT7DJbzmAUs-22" target="2ckS-WXbooT7DJbzmAUs-24">
          <mxGeometry relative="1" as="geometry" />
        </mxCell>
        <mxCell id="2ckS-WXbooT7DJbzmAUs-22" value="Фолд&amp;nbsp;N" style="rounded=1;whiteSpace=wrap;html=1;" vertex="1" parent="2ckS-WXbooT7DJbzmAUs-1">
          <mxGeometry x="160" y="270" width="120" height="60" as="geometry" />
        </mxCell>
        <mxCell id="2ckS-WXbooT7DJbzmAUs-23" style="edgeStyle=orthogonalEdgeStyle;rounded=0;orthogonalLoop=1;jettySize=auto;html=1;entryX=0;entryY=0.5;entryDx=0;entryDy=0;" edge="1" parent="2ckS-WXbooT7DJbzmAUs-1" source="2ckS-WXbooT7DJbzmAUs-24" target="2ckS-WXbooT7DJbzmAUs-26">
          <mxGeometry relative="1" as="geometry" />
        </mxCell>
        <mxCell id="2ckS-WXbooT7DJbzmAUs-24" value="Алгоритм&lt;br&gt;обучения N" style="rounded=1;whiteSpace=wrap;html=1;" vertex="1" parent="2ckS-WXbooT7DJbzmAUs-1">
          <mxGeometry x="310" y="270" width="120" height="60" as="geometry" />
        </mxCell>
        <mxCell id="F_jGkpPVdeUcvi4lHSFw-3" style="edgeStyle=orthogonalEdgeStyle;rounded=0;orthogonalLoop=1;jettySize=auto;html=1;entryX=0;entryY=0.5;entryDx=0;entryDy=0;" edge="1" parent="2ckS-WXbooT7DJbzmAUs-1" source="2ckS-WXbooT7DJbzmAUs-26" target="F_jGkpPVdeUcvi4lHSFw-0">
          <mxGeometry relative="1" as="geometry" />
        </mxCell>
        <mxCell id="2ckS-WXbooT7DJbzmAUs-26" value="Классификатор N" style="rounded=1;whiteSpace=wrap;html=1;" vertex="1" parent="2ckS-WXbooT7DJbzmAUs-1">
          <mxGeometry x="470" y="270" width="120" height="60" as="geometry" />
        </mxCell>
        <mxCell id="2ckS-WXbooT7DJbzmAUs-27" value="" style="group" vertex="1" connectable="0" parent="2ckS-WXbooT7DJbzmAUs-1">
          <mxGeometry x="190" y="230" width="60" height="20" as="geometry" />
        </mxCell>
        <mxCell id="2ckS-WXbooT7DJbzmAUs-28" value="" style="shape=waypoint;sketch=0;fillStyle=solid;size=6;pointerEvents=1;points=[];fillColor=none;resizable=0;rotatable=0;perimeter=centerPerimeter;snapToPoint=1;" vertex="1" parent="2ckS-WXbooT7DJbzmAUs-27">
          <mxGeometry width="20" height="20" as="geometry" />
        </mxCell>
        <mxCell id="2ckS-WXbooT7DJbzmAUs-29" value="" style="shape=waypoint;sketch=0;fillStyle=solid;size=6;pointerEvents=1;points=[];fillColor=none;resizable=0;rotatable=0;perimeter=centerPerimeter;snapToPoint=1;" vertex="1" parent="2ckS-WXbooT7DJbzmAUs-27">
          <mxGeometry x="20" width="20" height="20" as="geometry" />
        </mxCell>
        <mxCell id="2ckS-WXbooT7DJbzmAUs-30" value="" style="shape=waypoint;sketch=0;fillStyle=solid;size=6;pointerEvents=1;points=[];fillColor=none;resizable=0;rotatable=0;perimeter=centerPerimeter;snapToPoint=1;" vertex="1" parent="2ckS-WXbooT7DJbzmAUs-27">
          <mxGeometry x="40" width="20" height="20" as="geometry" />
        </mxCell>
        <mxCell id="2ckS-WXbooT7DJbzmAUs-31" value="" style="group" vertex="1" connectable="0" parent="2ckS-WXbooT7DJbzmAUs-1">
          <mxGeometry x="340" y="230" width="60" height="20" as="geometry" />
        </mxCell>
        <mxCell id="2ckS-WXbooT7DJbzmAUs-32" value="" style="shape=waypoint;sketch=0;fillStyle=solid;size=6;pointerEvents=1;points=[];fillColor=none;resizable=0;rotatable=0;perimeter=centerPerimeter;snapToPoint=1;" vertex="1" parent="2ckS-WXbooT7DJbzmAUs-31">
          <mxGeometry width="20" height="20" as="geometry" />
        </mxCell>
        <mxCell id="2ckS-WXbooT7DJbzmAUs-33" value="" style="shape=waypoint;sketch=0;fillStyle=solid;size=6;pointerEvents=1;points=[];fillColor=none;resizable=0;rotatable=0;perimeter=centerPerimeter;snapToPoint=1;" vertex="1" parent="2ckS-WXbooT7DJbzmAUs-31">
          <mxGeometry x="20" width="20" height="20" as="geometry" />
        </mxCell>
        <mxCell id="2ckS-WXbooT7DJbzmAUs-34" value="" style="shape=waypoint;sketch=0;fillStyle=solid;size=6;pointerEvents=1;points=[];fillColor=none;resizable=0;rotatable=0;perimeter=centerPerimeter;snapToPoint=1;" vertex="1" parent="2ckS-WXbooT7DJbzmAUs-31">
          <mxGeometry x="40" width="20" height="20" as="geometry" />
        </mxCell>
        <mxCell id="2ckS-WXbooT7DJbzmAUs-35" value="" style="group" vertex="1" connectable="0" parent="2ckS-WXbooT7DJbzmAUs-1">
          <mxGeometry x="500" y="230" width="60" height="20" as="geometry" />
        </mxCell>
        <mxCell id="2ckS-WXbooT7DJbzmAUs-36" value="" style="shape=waypoint;sketch=0;fillStyle=solid;size=6;pointerEvents=1;points=[];fillColor=none;resizable=0;rotatable=0;perimeter=centerPerimeter;snapToPoint=1;" vertex="1" parent="2ckS-WXbooT7DJbzmAUs-35">
          <mxGeometry width="20" height="20" as="geometry" />
        </mxCell>
        <mxCell id="2ckS-WXbooT7DJbzmAUs-37" value="" style="shape=waypoint;sketch=0;fillStyle=solid;size=6;pointerEvents=1;points=[];fillColor=none;resizable=0;rotatable=0;perimeter=centerPerimeter;snapToPoint=1;" vertex="1" parent="2ckS-WXbooT7DJbzmAUs-35">
          <mxGeometry x="20" width="20" height="20" as="geometry" />
        </mxCell>
        <mxCell id="2ckS-WXbooT7DJbzmAUs-38" value="" style="shape=waypoint;sketch=0;fillStyle=solid;size=6;pointerEvents=1;points=[];fillColor=none;resizable=0;rotatable=0;perimeter=centerPerimeter;snapToPoint=1;" vertex="1" parent="2ckS-WXbooT7DJbzmAUs-35">
          <mxGeometry x="40" width="20" height="20" as="geometry" />
        </mxCell>
        <mxCell id="F_jGkpPVdeUcvi4lHSFw-4" style="edgeStyle=orthogonalEdgeStyle;rounded=0;orthogonalLoop=1;jettySize=auto;html=1;entryX=0.5;entryY=0;entryDx=0;entryDy=0;" edge="1" parent="2ckS-WXbooT7DJbzmAUs-1" source="F_jGkpPVdeUcvi4lHSFw-0" target="2ckS-WXbooT7DJbzmAUs-20">
          <mxGeometry relative="1" as="geometry" />
        </mxCell>
        <mxCell id="F_jGkpPVdeUcvi4lHSFw-0" value="Метамодель" style="rounded=1;whiteSpace=wrap;html=1;" vertex="1" parent="2ckS-WXbooT7DJbzmAUs-1">
          <mxGeometry x="640" y="150" width="120" height="60" as="geometry" />
        </mxCell>
      </root>
    </mxGraphModel>
  </diagram>
  <diagram id="bDDTvplfufLGY9jfL6QT" name="classification">
    <mxGraphModel dx="954" dy="623" grid="1" gridSize="10" guides="1" tooltips="1" connect="1" arrows="1" fold="1" page="1" pageScale="1" pageWidth="827" pageHeight="1169" math="0" shadow="0">
      <root>
        <mxCell id="0" />
        <mxCell id="1" parent="0" />
        <mxCell id="0q21CnY5RJGCtMsgA5fN-1" style="edgeStyle=orthogonalEdgeStyle;rounded=0;orthogonalLoop=1;jettySize=auto;html=1;entryX=0.5;entryY=0;entryDx=0;entryDy=0;fontSize=11;" parent="1" source="q47N-_f9vywMUaNgfPwy-1" target="q47N-_f9vywMUaNgfPwy-3" edge="1">
          <mxGeometry relative="1" as="geometry" />
        </mxCell>
        <mxCell id="0q21CnY5RJGCtMsgA5fN-14" style="edgeStyle=orthogonalEdgeStyle;rounded=0;orthogonalLoop=1;jettySize=auto;html=1;entryX=0.5;entryY=0;entryDx=0;entryDy=0;exitX=0.75;exitY=1;exitDx=0;exitDy=0;fontSize=11;" parent="1" source="q47N-_f9vywMUaNgfPwy-1" target="0q21CnY5RJGCtMsgA5fN-13" edge="1">
          <mxGeometry relative="1" as="geometry" />
        </mxCell>
        <mxCell id="0q21CnY5RJGCtMsgA5fN-21" style="edgeStyle=orthogonalEdgeStyle;rounded=0;orthogonalLoop=1;jettySize=auto;html=1;exitX=0.25;exitY=1;exitDx=0;exitDy=0;entryX=0.5;entryY=0;entryDx=0;entryDy=0;fontSize=11;" parent="1" source="q47N-_f9vywMUaNgfPwy-1" target="eVnbfZ7lgSZU5ln8yV6Y-3" edge="1">
          <mxGeometry relative="1" as="geometry" />
        </mxCell>
        <mxCell id="0q21CnY5RJGCtMsgA5fN-23" style="edgeStyle=orthogonalEdgeStyle;rounded=0;orthogonalLoop=1;jettySize=auto;html=1;entryX=0.5;entryY=0;entryDx=0;entryDy=0;fontSize=11;" parent="1" source="q47N-_f9vywMUaNgfPwy-1" target="0q21CnY5RJGCtMsgA5fN-22" edge="1">
          <mxGeometry relative="1" as="geometry" />
        </mxCell>
        <mxCell id="eVnbfZ7lgSZU5ln8yV6Y-6" style="edgeStyle=orthogonalEdgeStyle;rounded=0;orthogonalLoop=1;jettySize=auto;html=1;entryX=0.5;entryY=0;entryDx=0;entryDy=0;fontSize=10;" parent="1" source="q47N-_f9vywMUaNgfPwy-1" target="0q21CnY5RJGCtMsgA5fN-5" edge="1">
          <mxGeometry relative="1" as="geometry" />
        </mxCell>
        <mxCell id="q47N-_f9vywMUaNgfPwy-1" value="Методы распознавания объектов с аэрофотоснимков" style="rounded=0;whiteSpace=wrap;html=1;fontSize=10;" parent="1" vertex="1">
          <mxGeometry x="350" y="40" width="100" height="60" as="geometry" />
        </mxCell>
        <mxCell id="q47N-_f9vywMUaNgfPwy-2" value="Простейшие&lt;br&gt;классификаторы" style="rounded=0;whiteSpace=wrap;html=1;fontSize=10;" parent="1" vertex="1">
          <mxGeometry x="280" y="280" width="100" height="60" as="geometry" />
        </mxCell>
        <mxCell id="0q21CnY5RJGCtMsgA5fN-2" style="edgeStyle=orthogonalEdgeStyle;rounded=0;orthogonalLoop=1;jettySize=auto;html=1;entryX=1;entryY=0.5;entryDx=0;entryDy=0;fontSize=11;" parent="1" source="q47N-_f9vywMUaNgfPwy-3" target="q47N-_f9vywMUaNgfPwy-4" edge="1">
          <mxGeometry relative="1" as="geometry" />
        </mxCell>
        <mxCell id="0q21CnY5RJGCtMsgA5fN-3" style="edgeStyle=orthogonalEdgeStyle;rounded=0;orthogonalLoop=1;jettySize=auto;html=1;entryX=1;entryY=0.5;entryDx=0;entryDy=0;fontSize=11;" parent="1" source="q47N-_f9vywMUaNgfPwy-3" target="q47N-_f9vywMUaNgfPwy-5" edge="1">
          <mxGeometry relative="1" as="geometry">
            <Array as="points">
              <mxPoint x="120" y="390" />
            </Array>
          </mxGeometry>
        </mxCell>
        <mxCell id="0q21CnY5RJGCtMsgA5fN-4" style="edgeStyle=orthogonalEdgeStyle;rounded=0;orthogonalLoop=1;jettySize=auto;html=1;entryX=1;entryY=0.5;entryDx=0;entryDy=0;fontSize=11;" parent="1" source="q47N-_f9vywMUaNgfPwy-3" target="q47N-_f9vywMUaNgfPwy-6" edge="1">
          <mxGeometry relative="1" as="geometry" />
        </mxCell>
        <mxCell id="q47N-_f9vywMUaNgfPwy-3" value="По спектру изображения" style="rounded=0;whiteSpace=wrap;html=1;fontSize=10;" parent="1" vertex="1">
          <mxGeometry x="70" y="160" width="100" height="60" as="geometry" />
        </mxCell>
        <mxCell id="q47N-_f9vywMUaNgfPwy-4" value="В видимом спектре" style="rounded=0;whiteSpace=wrap;html=1;fontSize=10;" parent="1" vertex="1">
          <mxGeometry y="280" width="100" height="60" as="geometry" />
        </mxCell>
        <mxCell id="q47N-_f9vywMUaNgfPwy-5" value="В инфракрасном спектре" style="rounded=0;whiteSpace=wrap;html=1;fontSize=10;" parent="1" vertex="1">
          <mxGeometry y="360" width="100" height="60" as="geometry" />
        </mxCell>
        <mxCell id="q47N-_f9vywMUaNgfPwy-6" value="В радиоволном&lt;br style=&quot;font-size: 10px;&quot;&gt;спектре" style="rounded=0;whiteSpace=wrap;html=1;fontSize=10;" parent="1" vertex="1">
          <mxGeometry y="440" width="100" height="60" as="geometry" />
        </mxCell>
        <mxCell id="0q21CnY5RJGCtMsgA5fN-7" style="edgeStyle=orthogonalEdgeStyle;rounded=0;orthogonalLoop=1;jettySize=auto;html=1;entryX=1;entryY=0.5;entryDx=0;entryDy=0;fontSize=11;" parent="1" source="0q21CnY5RJGCtMsgA5fN-5" target="0q21CnY5RJGCtMsgA5fN-6" edge="1">
          <mxGeometry relative="1" as="geometry">
            <Array as="points">
              <mxPoint x="400" y="390" />
            </Array>
          </mxGeometry>
        </mxCell>
        <mxCell id="0q21CnY5RJGCtMsgA5fN-8" style="edgeStyle=orthogonalEdgeStyle;rounded=0;orthogonalLoop=1;jettySize=auto;html=1;entryX=1;entryY=0.5;entryDx=0;entryDy=0;fontSize=11;" parent="1" source="0q21CnY5RJGCtMsgA5fN-5" target="q47N-_f9vywMUaNgfPwy-2" edge="1">
          <mxGeometry relative="1" as="geometry">
            <Array as="points">
              <mxPoint x="400" y="310" />
            </Array>
          </mxGeometry>
        </mxCell>
        <mxCell id="wVgahrpgX2_ETSVPMrd_-2" style="edgeStyle=orthogonalEdgeStyle;rounded=0;orthogonalLoop=1;jettySize=auto;html=1;entryX=1;entryY=0.5;entryDx=0;entryDy=0;fontSize=12;" parent="1" source="0q21CnY5RJGCtMsgA5fN-5" target="wVgahrpgX2_ETSVPMrd_-1" edge="1">
          <mxGeometry relative="1" as="geometry" />
        </mxCell>
        <mxCell id="0q21CnY5RJGCtMsgA5fN-5" value="По механизму функционирования" style="rounded=0;whiteSpace=wrap;html=1;fontSize=10;" parent="1" vertex="1">
          <mxGeometry x="350" y="160" width="100" height="60" as="geometry" />
        </mxCell>
        <mxCell id="0q21CnY5RJGCtMsgA5fN-6" value="Скрытые&lt;br&gt;Марковские&lt;br&gt;Модели" style="rounded=0;whiteSpace=wrap;html=1;fontSize=10;" parent="1" vertex="1">
          <mxGeometry x="280" y="360" width="100" height="60" as="geometry" />
        </mxCell>
        <mxCell id="0q21CnY5RJGCtMsgA5fN-16" style="edgeStyle=orthogonalEdgeStyle;rounded=0;orthogonalLoop=1;jettySize=auto;html=1;entryX=1;entryY=0.5;entryDx=0;entryDy=0;fontSize=11;" parent="1" source="0q21CnY5RJGCtMsgA5fN-13" target="0q21CnY5RJGCtMsgA5fN-15" edge="1">
          <mxGeometry relative="1" as="geometry" />
        </mxCell>
        <mxCell id="0q21CnY5RJGCtMsgA5fN-19" style="edgeStyle=orthogonalEdgeStyle;rounded=0;orthogonalLoop=1;jettySize=auto;html=1;entryX=1;entryY=0.5;entryDx=0;entryDy=0;fontSize=11;" parent="1" source="0q21CnY5RJGCtMsgA5fN-13" target="0q21CnY5RJGCtMsgA5fN-17" edge="1">
          <mxGeometry relative="1" as="geometry" />
        </mxCell>
        <mxCell id="0q21CnY5RJGCtMsgA5fN-20" style="edgeStyle=orthogonalEdgeStyle;rounded=0;orthogonalLoop=1;jettySize=auto;html=1;entryX=1;entryY=0.5;entryDx=0;entryDy=0;fontSize=11;" parent="1" source="0q21CnY5RJGCtMsgA5fN-13" target="0q21CnY5RJGCtMsgA5fN-18" edge="1">
          <mxGeometry relative="1" as="geometry" />
        </mxCell>
        <mxCell id="0q21CnY5RJGCtMsgA5fN-13" value="По результату распознавания" style="rounded=0;whiteSpace=wrap;html=1;fontSize=10;" parent="1" vertex="1">
          <mxGeometry x="490" y="160" width="100" height="60" as="geometry" />
        </mxCell>
        <mxCell id="0q21CnY5RJGCtMsgA5fN-15" value="Обнаружение" style="rounded=0;whiteSpace=wrap;html=1;fontSize=10;" parent="1" vertex="1">
          <mxGeometry x="420" y="280" width="100" height="60" as="geometry" />
        </mxCell>
        <mxCell id="0q21CnY5RJGCtMsgA5fN-17" value="Классификация" style="rounded=0;whiteSpace=wrap;html=1;fontSize=10;" parent="1" vertex="1">
          <mxGeometry x="420" y="360" width="100" height="60" as="geometry" />
        </mxCell>
        <mxCell id="0q21CnY5RJGCtMsgA5fN-18" value="Кластеризация" style="rounded=0;whiteSpace=wrap;html=1;fontSize=10;" parent="1" vertex="1">
          <mxGeometry x="420" y="440" width="100" height="60" as="geometry" />
        </mxCell>
        <mxCell id="0q21CnY5RJGCtMsgA5fN-25" style="edgeStyle=orthogonalEdgeStyle;rounded=0;orthogonalLoop=1;jettySize=auto;html=1;entryX=1;entryY=0.5;entryDx=0;entryDy=0;fontSize=11;" parent="1" source="0q21CnY5RJGCtMsgA5fN-22" target="0q21CnY5RJGCtMsgA5fN-24" edge="1">
          <mxGeometry relative="1" as="geometry" />
        </mxCell>
        <mxCell id="0q21CnY5RJGCtMsgA5fN-27" style="edgeStyle=orthogonalEdgeStyle;rounded=0;orthogonalLoop=1;jettySize=auto;html=1;entryX=1;entryY=0.5;entryDx=0;entryDy=0;fontSize=11;" parent="1" source="0q21CnY5RJGCtMsgA5fN-22" target="0q21CnY5RJGCtMsgA5fN-26" edge="1">
          <mxGeometry relative="1" as="geometry" />
        </mxCell>
        <mxCell id="0q21CnY5RJGCtMsgA5fN-22" value="По режиму функцианирования" style="rounded=0;whiteSpace=wrap;html=1;fontSize=10;" parent="1" vertex="1">
          <mxGeometry x="630" y="160" width="100" height="60" as="geometry" />
        </mxCell>
        <mxCell id="0q21CnY5RJGCtMsgA5fN-24" value="Реального времени" style="rounded=0;whiteSpace=wrap;html=1;fontSize=10;" parent="1" vertex="1">
          <mxGeometry x="560" y="280" width="100" height="60" as="geometry" />
        </mxCell>
        <mxCell id="0q21CnY5RJGCtMsgA5fN-26" value="Прочие" style="rounded=0;whiteSpace=wrap;html=1;fontSize=10;" parent="1" vertex="1">
          <mxGeometry x="560" y="360" width="100" height="60" as="geometry" />
        </mxCell>
        <mxCell id="eVnbfZ7lgSZU5ln8yV6Y-1" value="Единичное изображение" style="rounded=0;whiteSpace=wrap;html=1;fontSize=10;" parent="1" vertex="1">
          <mxGeometry x="140" y="280" width="100" height="60" as="geometry" />
        </mxCell>
        <mxCell id="eVnbfZ7lgSZU5ln8yV6Y-2" value="Последовательность изображений" style="rounded=0;whiteSpace=wrap;html=1;fontSize=10;" parent="1" vertex="1">
          <mxGeometry x="140" y="360" width="100" height="60" as="geometry" />
        </mxCell>
        <mxCell id="eVnbfZ7lgSZU5ln8yV6Y-4" style="edgeStyle=orthogonalEdgeStyle;rounded=0;orthogonalLoop=1;jettySize=auto;html=1;entryX=1;entryY=0.5;entryDx=0;entryDy=0;fontSize=10;" parent="1" source="eVnbfZ7lgSZU5ln8yV6Y-3" target="eVnbfZ7lgSZU5ln8yV6Y-1" edge="1">
          <mxGeometry relative="1" as="geometry" />
        </mxCell>
        <mxCell id="eVnbfZ7lgSZU5ln8yV6Y-5" style="edgeStyle=orthogonalEdgeStyle;rounded=0;orthogonalLoop=1;jettySize=auto;html=1;entryX=1;entryY=0.5;entryDx=0;entryDy=0;fontSize=10;" parent="1" source="eVnbfZ7lgSZU5ln8yV6Y-3" target="eVnbfZ7lgSZU5ln8yV6Y-2" edge="1">
          <mxGeometry relative="1" as="geometry" />
        </mxCell>
        <mxCell id="eVnbfZ7lgSZU5ln8yV6Y-3" value="По входным данным" style="rounded=0;whiteSpace=wrap;html=1;fontSize=10;" parent="1" vertex="1">
          <mxGeometry x="210" y="160" width="100" height="60" as="geometry" />
        </mxCell>
        <mxCell id="wVgahrpgX2_ETSVPMrd_-1" value="Нейросетевой метод" style="rounded=0;whiteSpace=wrap;html=1;fontSize=10;" parent="1" vertex="1">
          <mxGeometry x="280" y="440" width="100" height="60" as="geometry" />
        </mxCell>
      </root>
    </mxGraphModel>
  </diagram>
  <diagram id="wBMbMHWkzKYW07TnB9Pj" name="method">
    <mxGraphModel dx="1434" dy="923" grid="1" gridSize="10" guides="1" tooltips="1" connect="1" arrows="1" fold="1" page="1" pageScale="1" pageWidth="827" pageHeight="1169" math="0" shadow="0">
      <root>
        <mxCell id="0" />
        <mxCell id="1" parent="0" />
        <mxCell id="b5BUa7UdkXmnFL-DeIMG-1" value="&lt;font style=&quot;font-size: 18px;&quot;&gt;Метод распознавания надводных&lt;br&gt;объектов с аэрофотоснимков с&lt;br&gt;использованием нейронных сетей&lt;/font&gt;" style="rounded=0;whiteSpace=wrap;html=1;" vertex="1" parent="1">
          <mxGeometry x="239" y="280" width="350" height="160" as="geometry" />
        </mxCell>
        <mxCell id="b5BUa7UdkXmnFL-DeIMG-3" value="A0" style="text;html=1;align=center;verticalAlign=middle;resizable=0;points=[];autosize=1;strokeColor=none;fillColor=none;fontSize=18;" vertex="1" parent="1">
          <mxGeometry x="540" y="400" width="50" height="40" as="geometry" />
        </mxCell>
        <mxCell id="b5BUa7UdkXmnFL-DeIMG-4" value="" style="endArrow=classic;html=1;rounded=0;entryX=0;entryY=0.5;entryDx=0;entryDy=0;" edge="1" parent="1" target="b5BUa7UdkXmnFL-DeIMG-1">
          <mxGeometry width="50" height="50" relative="1" as="geometry">
            <mxPoint x="80" y="360" as="sourcePoint" />
            <mxPoint x="120" y="360" as="targetPoint" />
          </mxGeometry>
        </mxCell>
        <mxCell id="b5BUa7UdkXmnFL-DeIMG-5" value="" style="endArrow=classic;html=1;rounded=0;entryX=0.5;entryY=1;entryDx=0;entryDy=0;" edge="1" parent="1" target="b5BUa7UdkXmnFL-DeIMG-1">
          <mxGeometry width="50" height="50" relative="1" as="geometry">
            <mxPoint x="414" y="560" as="sourcePoint" />
            <mxPoint x="439" y="500" as="targetPoint" />
          </mxGeometry>
        </mxCell>
        <mxCell id="b5BUa7UdkXmnFL-DeIMG-6" value="" style="endArrow=classic;html=1;rounded=0;entryX=0.5;entryY=0;entryDx=0;entryDy=0;" edge="1" parent="1" target="b5BUa7UdkXmnFL-DeIMG-1">
          <mxGeometry width="50" height="50" relative="1" as="geometry">
            <mxPoint x="414" y="160" as="sourcePoint" />
            <mxPoint x="460" y="120" as="targetPoint" />
          </mxGeometry>
        </mxCell>
        <mxCell id="b5BUa7UdkXmnFL-DeIMG-10" value="" style="endArrow=classic;html=1;rounded=0;exitX=1;exitY=0.5;exitDx=0;exitDy=0;" edge="1" parent="1" source="b5BUa7UdkXmnFL-DeIMG-1">
          <mxGeometry width="50" height="50" relative="1" as="geometry">
            <mxPoint x="424" y="170" as="sourcePoint" />
            <mxPoint x="750" y="360" as="targetPoint" />
          </mxGeometry>
        </mxCell>
        <mxCell id="b5BUa7UdkXmnFL-DeIMG-11" value="Алгоритмы анализа,&lt;br style=&quot;font-size: 16px;&quot;&gt;обработки и преобразования &lt;br style=&quot;font-size: 16px;&quot;&gt;изображений" style="text;html=1;align=center;verticalAlign=middle;resizable=0;points=[];autosize=1;strokeColor=none;fillColor=none;fontSize=16;" vertex="1" parent="1">
          <mxGeometry x="160" y="480" width="250" height="70" as="geometry" />
        </mxCell>
        <mxCell id="b5BUa7UdkXmnFL-DeIMG-12" value="Изображение" style="text;html=1;align=center;verticalAlign=middle;resizable=0;points=[];autosize=1;strokeColor=none;fillColor=none;fontSize=16;" vertex="1" parent="1">
          <mxGeometry x="75" y="330" width="130" height="30" as="geometry" />
        </mxCell>
        <mxCell id="b5BUa7UdkXmnFL-DeIMG-13" value="Объекты&lt;br&gt;распознавания" style="text;html=1;align=center;verticalAlign=middle;resizable=0;points=[];autosize=1;strokeColor=none;fillColor=none;fontSize=16;" vertex="1" parent="1">
          <mxGeometry x="600" y="310" width="140" height="50" as="geometry" />
        </mxCell>
      </root>
    </mxGraphModel>
  </diagram>
</mxfile>
